<svg width="99" height="100" viewBox="0 0 99 100" fill="none" xmlns="http://www.w3.org/2000/svg">
<path d="M50.2265 8.15162L50.3593 6.54902C50.3871 6.21425 50.4647 5.92665 50.5922 5.68621C50.7268 5.44636 50.9232 5.24031 51.1813 5.06806C51.44 4.88869 51.7758 4.73006 52.1889 4.59217L53.4947 4.15174C53.8265 4.04297 54.0754 3.89506 54.2415 3.70802C54.4147 3.52157 54.514 3.27521 54.5394 2.96893C54.5653 2.65554 54.4904 2.39115 54.3146 2.17578C54.1389 1.96041 53.8658 1.83739 53.4954 1.8067C53.125 1.77601 52.8351 1.85598 52.6257 2.0466C52.4163 2.23722 52.2971 2.50704 52.2682 2.85605L50.5694 2.71529C50.6101 2.22383 50.7536 1.79108 50.9997 1.41704C51.2464 1.03587 51.5893 0.748737 52.0285 0.555631C52.4676 0.362525 52.997 0.291644 53.6167 0.342989C54.2363 0.394333 54.7436 0.547521 55.1384 0.802554C55.5404 1.05818 55.8328 1.38003 56.0158 1.76811C56.2059 2.15679 56.2818 2.58261 56.2434 3.04558L56.2328 3.17379C56.1832 3.7721 55.9784 4.25355 55.6183 4.61815C55.2588 4.97562 54.7248 5.27561 54.0162 5.51811L52.721 5.95942C52.4997 6.03431 52.3386 6.11777 52.2377 6.20982C52.144 6.30245 52.09 6.43424 52.0758 6.60519L52.0316 7.13939L51.6441 6.75229L55.9177 7.10639L55.7929 8.61283L50.2265 8.15162Z" fill="#050505"/>
<path d="M59.809 9.74752C59.2063 9.59438 58.7159 9.34808 58.3375 9.0086C57.961 8.66219 57.7051 8.26165 57.5699 7.80697C57.4417 7.35405 57.4383 6.88861 57.5597 6.41065L59.2014 6.8278C59.1416 7.06332 59.1407 7.28433 59.1989 7.49083C59.2657 7.69217 59.3829 7.86943 59.5504 8.02262C59.7197 8.16888 59.9291 8.27369 60.1784 8.33706C60.4555 8.40746 60.7017 8.41101 60.9169 8.34771C61.1407 8.27923 61.3293 8.16122 61.4825 7.99367C61.6374 7.81919 61.7466 7.60727 61.8099 7.3579C61.8751 7.1016 61.8803 6.86327 61.8257 6.64291C61.7798 6.41739 61.6748 6.22111 61.5107 6.05407C61.3536 5.88878 61.14 5.77182 60.8698 5.70317C60.6205 5.63981 60.3822 5.63456 60.1549 5.68742C59.9276 5.74028 59.7452 5.83404 59.6077 5.96872L58.0076 5.56213L59.4798 1.37896L64.0828 2.54858L63.7132 4.00324L59.7856 3.00524L60.5511 2.73517L59.6968 5.13962L59.3283 4.93538C59.5995 4.73882 59.9017 4.59438 60.2348 4.50206C60.5767 4.40457 60.9866 4.41655 61.4646 4.538C62.0187 4.67881 62.4607 4.9128 62.7906 5.23996C63.1291 5.56195 63.3538 5.93984 63.4648 6.37362C63.5845 6.80224 63.5854 7.2486 63.4675 7.71271L63.4331 7.84778C63.3152 8.31189 63.0909 8.71578 62.7602 9.05946C62.4295 9.40314 62.0109 9.64334 61.5042 9.78006C61.0044 9.91854 60.4393 9.90769 59.809 9.74752Z" fill="#050505"/>
<path d="M65.8412 10.503L68.002 5.56236L69.3967 6.17237L67.2359 11.113L65.8412 10.503ZM64.9016 7.91567L65.4601 6.63877L70.3418 8.7738L69.7833 10.0507L64.9016 7.91567Z" fill="#050505"/>
<path d="M75.1412 13.399L76.1716 8.13232L77.624 9.19739L76.7976 13.0981L76.604 12.8364L77.3302 13.369L77.0051 13.2502L80.3473 11.1944L81.7219 12.2024L77.1555 14.8761L75.1412 13.399ZM73.6963 16.0219L75.5982 13.4284L76.9901 14.449L75.0882 17.0426L73.6963 16.0219Z" fill="#050505"/>
<path d="M79.156 20.9866C78.8052 20.6299 78.5557 20.2538 78.4074 19.8584C78.2641 19.468 78.2042 19.0809 78.2276 18.697C78.2612 18.3132 78.3577 17.9476 78.5173 17.6002C78.687 17.2529 78.9069 16.9465 79.177 16.6809L79.3299 16.5305C79.6102 16.2549 79.9228 16.0377 80.2678 15.8789C80.6229 15.7201 80.9901 15.6297 81.3693 15.6076C81.7486 15.5856 82.1271 15.6494 82.5049 15.7991C82.8928 15.9489 83.2546 16.1946 83.5903 16.536C84.0313 16.9845 84.3002 17.4618 84.397 17.968C84.5039 18.4743 84.4745 18.9693 84.3087 19.4531C84.148 19.9319 83.8766 20.3592 83.4944 20.735L83.0816 21.1409L79.436 17.4335L80.1316 16.7495L83.0481 19.7154L82.3362 19.6336C82.5859 19.3881 82.7648 19.142 82.873 18.8952C82.9812 18.6485 83.0111 18.4087 82.9625 18.1758C82.924 17.943 82.802 17.7221 82.5966 17.5132C82.3861 17.2991 82.1598 17.1658 81.9177 17.1133C81.6755 17.0607 81.4226 17.0889 81.1589 17.1979C80.9002 17.3018 80.6359 17.4866 80.3658 17.7522C80.1161 17.9977 79.932 18.2489 79.8136 18.5056C79.7003 18.7574 79.6679 19.0098 79.7163 19.2629C79.7647 19.516 79.9092 19.7649 80.1497 20.0095C80.3702 20.2337 80.5939 20.3746 80.8209 20.4321C81.0478 20.4896 81.25 20.4811 81.4275 20.4068L82.5325 21.5305C82.1921 21.745 81.8246 21.8708 81.4301 21.9079C81.0356 21.945 80.6444 21.8886 80.2565 21.7388C79.8686 21.589 79.5017 21.3383 79.156 20.9866Z" fill="#050505"/>
<path d="M84.1555 26.809L85.5704 25.8019L85.4025 25.566L86.9396 24.4718C87.1842 24.2977 87.3261 24.1089 87.3655 23.9055C87.4049 23.702 87.3334 23.4721 87.151 23.2159C87.0598 23.0878 86.9367 22.9211 86.7817 22.7156C86.6267 22.5101 86.4646 22.3009 86.2954 22.088C86.1263 21.875 85.9716 21.6824 85.8315 21.5102L87.0106 20.6709C87.1175 20.7965 87.2411 20.9454 87.3812 21.1176C87.5214 21.2898 87.6627 21.4699 87.8053 21.6579C87.9479 21.8459 88.0793 22.0244 88.1995 22.1932C88.5477 22.6823 88.77 23.1425 88.8665 23.5739C88.9672 24.0111 88.937 24.4185 88.7761 24.7963C88.621 25.1699 88.3221 25.5142 87.8796 25.8292L84.9451 27.9182L84.1555 26.809ZM82.9452 25.3677C82.7007 25.0242 82.5463 24.6779 82.482 24.3288C82.4219 23.9856 82.4536 23.6604 82.5771 23.3532C82.7063 23.0418 82.9311 22.7721 83.2513 22.5442C83.6007 22.2955 83.9502 22.1826 84.3 22.2056C84.6555 22.2245 85.0018 22.3596 85.3387 22.6111C85.6814 22.8584 86.0041 23.1946 86.3067 23.6196L87.0341 24.6415L86.2568 25.1948L85.5231 24.1642C85.3491 23.9197 85.1532 23.774 84.9356 23.7271C84.728 23.6819 84.5223 23.7318 84.3185 23.8769C84.1263 24.0137 84.0147 24.1896 83.9836 24.4048C83.9625 24.6216 84.039 24.8522 84.2131 25.0968C84.325 25.254 84.4507 25.3751 84.5901 25.4601C84.7395 25.5467 84.9102 25.5831 85.1021 25.5693C85.2941 25.5555 85.5136 25.4694 85.7606 25.3111L85.6475 25.8917C85.2949 26.0988 84.9574 26.2163 84.635 26.244C84.3167 26.2776 84.0135 26.2214 83.7255 26.0756C83.4415 25.9355 83.1815 25.6996 82.9452 25.3677Z" fill="#050505"/>
<path d="M85.659 29.2241L90.8514 26.4758L91.4883 27.6791L89.2617 28.8577L89.2466 28.8293C89.9794 28.4414 90.6266 28.297 91.1884 28.3958C91.7536 28.501 92.1933 28.8505 92.5076 29.4443L92.6129 29.6433L91.3053 30.3354L91.1047 29.9564C90.884 29.5395 90.5998 29.2775 90.252 29.1705C89.9106 29.0601 89.5282 29.1169 89.105 29.3409L86.4614 30.7402L85.659 29.2241Z" fill="#050505"/>
<path d="M88.3715 35.4929C88.0774 34.7101 88.008 34.0376 88.1632 33.4754C88.3185 32.9132 88.6821 32.5093 89.2541 32.2639L89.7895 33.6889C89.6256 33.7811 89.5074 33.9438 89.4347 34.1773C89.3713 34.4149 89.4087 34.7177 89.547 35.0856C89.6526 35.3666 89.7861 35.5799 89.9477 35.7253C90.1184 35.8749 90.2941 35.9158 90.4747 35.8479C90.6353 35.7876 90.736 35.6696 90.7769 35.4939C90.8245 35.3157 90.8005 35.0384 90.7049 34.6621L90.5829 34.2154C90.4009 33.528 90.3976 32.9604 90.573 32.5127C90.7509 32.0718 91.074 31.7633 91.5423 31.5874C91.9304 31.4416 92.2913 31.4167 92.6252 31.5127C92.959 31.6087 93.2569 31.8021 93.5189 32.0931C93.7834 32.3907 93.9986 32.7603 94.1646 33.2018C94.431 33.911 94.4887 34.5421 94.3377 35.0952C94.1933 35.6457 93.8305 36.0416 93.2493 36.2828L92.7138 34.8578C92.8844 34.7631 92.9998 34.6129 93.0599 34.4071C93.1267 34.1988 93.101 33.9374 92.9828 33.6229C92.8898 33.3754 92.7688 33.1956 92.6199 33.0836C92.4709 32.9716 92.3161 32.9458 92.1556 33.0061C92.0017 33.0639 91.9085 33.1715 91.876 33.3288C91.8434 33.4861 91.8645 33.7148 91.9391 34.0151L92.0611 34.4617C92.2414 35.1651 92.2514 35.7607 92.0911 36.2484C91.9308 36.7362 91.5964 37.0756 91.088 37.2667C90.72 37.4049 90.3611 37.4252 90.0114 37.3276C89.6684 37.2274 89.3541 37.021 89.0687 36.7083C88.7899 36.3932 88.5576 35.988 88.3715 35.4929Z" fill="#050505"/>
<path d="M90.3706 41.5845L98.1145 40.4536L98.3624 42.1509L90.6184 43.2818L90.3706 41.5845ZM90.5875 43.0697L92.0302 42.859L92.5244 46.243L91.0817 46.4536L90.5875 43.0697ZM93.8017 42.6003L95.2444 42.3896L95.703 45.5296L94.2603 45.7402L93.8017 42.6003ZM96.8887 42.1494L98.3314 41.9387L98.8147 45.2485L97.372 45.4592L96.8887 42.1494Z" fill="#050505"/>
<path d="M91.1752 47.5334L94.3087 49.3873L94.0411 49.3417L97.0492 47.6564L97.0307 49.5109L95.0261 50.5523L95.0244 50.7239L97.0084 51.7407L96.991 53.4881L93.995 51.8179L94.2197 51.863L91.113 53.7618L91.1317 51.8965L93.2776 50.6528L93.2793 50.4813L91.1579 49.2701L91.1752 47.5334Z" fill="#050505"/>
<path d="M88.8985 54.1234L96.7928 55.5324L96.5536 56.8727L94.0523 56.4263L94.0949 56.2487C94.6668 56.3799 95.1309 56.5861 95.4873 56.8675C95.8507 57.1502 96.0988 57.4885 96.2318 57.8825C96.3718 58.2777 96.4016 58.7005 96.3212 59.1508C96.2496 59.5518 96.1111 59.901 95.9056 60.1983C95.6988 60.5026 95.441 60.747 95.1322 60.9315C94.8292 61.1242 94.4876 61.2484 94.1074 61.3039C93.733 61.3678 93.3347 61.3621 92.9126 61.2867L92.6698 61.2434C92.2547 61.1693 91.8749 61.0398 91.5304 60.8549C91.1929 60.6712 90.9112 60.4395 90.6853 60.1595C90.4581 59.8867 90.2966 59.5711 90.2008 59.2128C90.1108 58.8628 90.1035 58.4767 90.1789 58.0545C90.2567 57.6183 90.415 57.24 90.6537 56.9196C90.8982 56.6075 91.2222 56.3785 91.6257 56.2327C92.0363 56.0882 92.5284 56.0563 93.1021 56.1369L92.386 56.4882L88.5971 55.812L88.8985 54.1234ZM91.6779 57.832C91.6264 58.1205 91.6522 58.3828 91.7552 58.619C91.857 58.8622 92.0239 59.0662 92.2558 59.2311C92.4877 59.3959 92.7691 59.5078 93.0997 59.5668C93.4304 59.6258 93.7296 59.6175 93.9972 59.5419C94.2648 59.4662 94.4843 59.3348 94.6556 59.1476C94.834 58.9616 94.9496 58.7209 95.0023 58.4254C95.0475 58.1721 95.0304 57.9222 94.951 57.6757C94.8716 57.4292 94.7318 57.2155 94.5318 57.0346C94.3376 56.862 94.0821 56.7474 93.7655 56.6909L93.375 56.6212C93.0725 56.5672 92.7996 56.5911 92.5564 56.6929C92.3189 56.803 92.1238 56.9605 91.971 57.1656C91.8183 57.3706 91.7206 57.5928 91.6779 57.832Z" fill="#050505"/>
<path d="M88.3393 64.4964C88.5119 64.0268 88.7453 63.6405 89.0395 63.3374C89.3312 63.0411 89.6556 62.8215 90.0127 62.6786C90.374 62.5449 90.7458 62.476 91.1281 62.4718C91.5146 62.4769 91.8856 62.5447 92.2411 62.6754L92.4424 62.7494C92.8113 62.885 93.1413 63.0748 93.4324 63.3189C93.7276 63.5721 93.9663 63.8654 94.1483 64.1988C94.3303 64.5323 94.4344 64.9017 94.4604 65.3073C94.4907 65.722 94.4233 66.1541 94.2581 66.6035C94.0411 67.1939 93.7244 67.6409 93.3081 67.9448C92.8961 68.2578 92.436 68.4428 91.9277 68.4996C91.4262 68.5589 90.9239 68.4961 90.4208 68.3112L89.8774 68.1114L91.6713 63.2312L92.587 63.5678L91.1519 67.472L90.9216 66.7934C91.2503 66.9142 91.5493 66.9708 91.8186 66.9632C92.0879 66.9556 92.3175 66.8801 92.5073 66.7366C92.7013 66.6024 92.8489 66.3977 92.95 66.1227C93.0535 65.8409 93.0773 65.5794 93.0214 65.338C92.9654 65.0966 92.8319 64.88 92.6206 64.6881C92.4161 64.4987 92.1361 64.3387 91.7806 64.208C91.4519 64.0871 91.1462 64.0281 90.8634 64.0307C90.5874 64.0359 90.3453 64.1144 90.1372 64.2664C89.9291 64.4183 89.7658 64.6552 89.6474 64.9772C89.5389 65.2724 89.5072 65.5349 89.5522 65.7646C89.5972 65.9944 89.6912 66.1736 89.8342 66.3023L89.2905 67.7815C88.9512 67.5654 88.6804 67.2869 88.4782 66.9461C88.2761 66.6052 88.1599 66.2275 88.1296 65.8128C88.0993 65.398 88.1692 64.9593 88.3393 64.4964Z" fill="#050505"/>
<path d="M86.9267 68.3537L92.1105 71.1183L91.4699 72.3196L89.2469 71.1341L89.262 71.1057C89.9935 71.4958 90.4756 71.9513 90.7081 72.4722C90.9372 72.9994 90.8937 73.5594 90.5776 74.1522L90.4716 74.3509L89.1662 73.6547L89.368 73.2763C89.59 72.8601 89.648 72.4779 89.542 72.1298C89.4424 71.7851 89.1813 71.5001 88.7588 71.2747L86.1196 69.8672L86.9267 68.3537Z" fill="#050505"/>
<path d="M84.5329 72.5527L89.4275 75.8019L88.4788 77.231L83.5842 73.9818L84.5329 72.5527ZM88.8064 74.4502L89.8603 75.1499L88.4788 77.231L87.4248 76.5313L88.8064 74.4502ZM89.5422 76.6758C89.7201 76.4079 89.9209 76.2538 90.1449 76.2138C90.3708 76.1836 90.5909 76.2396 90.8053 76.3819C91.0256 76.5282 91.1627 76.7093 91.2167 76.9253C91.2726 77.1511 91.2117 77.398 91.0338 77.666C90.8559 77.9339 90.654 78.083 90.4281 78.1132C90.2042 78.1533 89.9821 78.1002 89.7617 77.9539C89.5474 77.8116 89.4122 77.6276 89.3563 77.4017C89.3023 77.1857 89.3643 76.9438 89.5422 76.6758Z" fill="#050505"/>
<path d="M80.8207 77.1653C81.1465 76.7856 81.5001 76.5051 81.8815 76.3239C82.2584 76.148 82.639 76.0555 83.0235 76.0464C83.4088 76.0473 83.7813 76.1126 84.1409 76.2422C84.5013 76.3818 84.8253 76.575 85.1128 76.8216L85.2756 76.9612C85.5739 77.2171 85.8168 77.5103 86.0043 77.8406C86.1926 78.1809 86.3138 78.5391 86.3679 78.9151C86.422 79.2911 86.3905 79.6737 86.2733 80.0628C86.1568 80.462 85.9427 80.8433 85.631 81.2068C85.2215 81.6841 84.7686 81.9925 84.2724 82.1319C83.777 82.2813 83.2813 82.2939 82.7852 82.1697C82.2945 82.0501 81.8458 81.8158 81.4389 81.4668L80.9995 81.0899L84.3848 77.1434L85.1253 77.7786L82.417 80.9358L82.4382 80.2195C82.704 80.4475 82.9645 80.605 83.2195 80.6919C83.4745 80.7788 83.716 80.7882 83.9439 80.7201C84.1726 80.662 84.3824 80.5218 84.5731 80.2994C84.7686 80.0715 84.8822 79.8348 84.9141 79.589C84.946 79.3433 84.8965 79.0937 84.7655 78.8401C84.6401 78.5912 84.4336 78.3435 84.146 78.0968C83.8802 77.8688 83.6144 77.7067 83.3485 77.6105C83.0881 77.5189 82.8338 77.508 82.5857 77.5776C82.3376 77.6473 82.1019 77.8124 81.8786 78.0727C81.6738 78.3114 81.5524 78.5463 81.5143 78.7773C81.4763 79.0083 81.5018 79.2091 81.5909 79.3796L80.5648 80.5758C80.3223 80.2548 80.1658 79.8993 80.0954 79.5093C80.025 79.1194 80.048 78.7248 80.1645 78.3256C80.2809 77.9264 80.4997 77.5397 80.8207 77.1653Z" fill="#050505"/>
<path d="M78.1544 80.3671L81.917 84.8791L80.8713 85.751L79.2578 83.8162L79.3319 83.7544C79.7164 84.2155 79.9792 84.6478 80.1202 85.0513C80.2558 85.4593 80.2669 85.8409 80.1536 86.196C80.0402 86.5511 79.8106 86.8728 79.4648 87.1612L79.4072 87.2093C78.8803 87.6487 78.3354 87.8099 77.7725 87.693C77.2088 87.5861 76.6363 87.1841 76.055 86.487L73.9059 83.9099L75.2233 82.8114L77.4341 85.4626C77.6355 85.7041 77.8717 85.8422 78.1426 85.8769C78.4134 85.9116 78.6696 85.8282 78.9111 85.6268C79.1581 85.4208 79.2921 85.1742 79.3131 84.8868C79.3331 84.6095 79.2379 84.3446 79.0273 84.0922L76.8371 81.4657L78.1544 80.3671Z" fill="#050505"/>
<path d="M70.1737 85.9714C70.6119 85.7155 71.0359 85.563 71.4459 85.5139C71.8534 85.4746 72.2372 85.5152 72.5974 85.636C72.9576 85.7567 73.2802 85.9407 73.5654 86.188C73.8541 86.4414 74.0958 86.7348 74.2904 87.0681L74.3932 87.244C74.595 87.5896 74.7323 87.9522 74.8051 88.3318C74.8814 88.7176 74.8837 89.097 74.8118 89.4701C74.74 89.8431 74.5851 90.1943 74.3471 90.5237C74.1029 90.8566 73.7709 91.1457 73.3513 91.3908C72.8946 91.6575 72.4381 91.8041 71.9818 91.8306C71.529 91.8633 71.1059 91.7835 70.7122 91.5913C70.3185 91.3991 69.9904 91.1065 69.7278 90.7136L71.1812 89.8648C71.3393 90.0787 71.5436 90.216 71.7942 90.2765C72.0422 90.3469 72.3143 90.2955 72.6105 90.1225C72.8574 89.9784 73.0281 89.7959 73.1227 89.5751C73.211 89.358 73.2323 89.118 73.1863 88.8551C73.1404 88.5923 73.0309 88.3127 72.8579 88.0165C72.6993 87.7449 72.5181 87.5197 72.3143 87.3408C72.1141 87.168 71.8977 87.0668 71.6651 87.0371C71.43 87.0171 71.1798 87.0846 70.9144 87.2396C70.7169 87.355 70.5701 87.4862 70.474 87.6334C70.3753 87.7904 70.3219 87.954 70.3137 88.1243C70.303 88.3044 70.3371 88.4831 70.4159 88.6606L68.9717 89.504C68.7451 89.0735 68.6461 88.6348 68.6747 88.1877C68.7069 87.7468 68.8497 87.3323 69.1031 86.9443C69.3601 86.5624 69.717 86.2381 70.1737 85.9714Z" fill="#050505"/>
<path d="M64.0302 88.8814C64.4976 88.703 64.9422 88.6251 65.3639 88.6478C65.779 88.6729 66.1577 88.7732 66.5 88.9485C66.8382 89.1331 67.1344 89.3681 67.3887 89.6535C67.6389 89.9482 67.8315 90.2725 67.9666 90.6263L68.0431 90.8267C68.1833 91.1939 68.257 91.5674 68.2642 91.9471C68.2673 92.3361 68.203 92.7087 68.0713 93.065C67.9395 93.4213 67.7293 93.7425 67.4407 94.0286C67.148 94.3239 66.778 94.557 66.3306 94.7278C65.743 94.952 65.1979 95.0071 64.6953 94.8929C64.1886 94.788 63.7469 94.5626 63.3701 94.2168C62.9958 93.8777 62.7131 93.4578 62.522 92.957L62.3156 92.4161L67.1732 90.562L67.5211 91.4734L63.635 92.9568L63.9952 92.3373C64.1201 92.6645 64.2739 92.9271 64.4566 93.1251C64.6393 93.3231 64.847 93.4465 65.0799 93.4954C65.3086 93.5534 65.5598 93.5302 65.8336 93.4257C66.114 93.3187 66.3269 93.1647 66.4721 92.964C66.6173 92.7632 66.6928 92.5202 66.6987 92.2349C66.7071 91.9563 66.6438 91.64 66.5087 91.2861C66.3838 90.9589 66.2275 90.6897 66.0397 90.4783C65.8544 90.2736 65.6362 90.1427 65.3849 90.0856C65.1336 90.0285 64.8477 90.0612 64.5272 90.1835C64.2334 90.2956 64.0147 90.4441 63.871 90.629C63.7274 90.8139 63.6541 91.0025 63.651 91.195L62.1787 91.7569C62.1186 91.3591 62.1507 90.972 62.2748 90.5957C62.3989 90.2194 62.6073 89.8836 62.9 89.5882C63.1927 89.2929 63.5695 89.0573 64.0302 88.8814Z" fill="#050505"/>
<path d="M54.0146 95.441L55.7984 96.3842L55.9742 97.5936L54.5329 99.0056L53.7328 97.9736L54.95 97.255L54.913 97.0004L53.5431 96.6687L54.0146 95.441ZM56.1811 99.6869L56.1048 97.6721L57.0672 96.9147L59.0092 97.4557L58.5118 98.6547L57.2851 97.9664L57.0808 98.1261L57.4723 99.4775L56.1811 99.6869ZM58.7485 95.6628L57.041 96.7344L55.9028 96.2823L55.4022 94.3293L56.698 94.1517L56.7076 95.5587L56.9489 95.6536L57.9182 94.646L58.7485 95.6628Z" fill="#050505"/>
<path d="M48.8832 91.8173L48.7626 93.4208C48.7374 93.7558 48.662 94.044 48.5363 94.2854C48.4035 94.5262 48.2087 94.7338 47.9519 94.908C47.6946 95.0893 47.3599 95.2505 46.948 95.3915L45.6455 95.8419C45.3146 95.9532 45.0668 96.103 44.9021 96.2913C44.7303 96.479 44.6329 96.7261 44.6099 97.0326C44.5863 97.3462 44.6632 97.61 44.8406 97.824C45.0181 98.0381 45.2921 98.159 45.6627 98.1869C46.0333 98.2147 46.3226 98.1326 46.5305 97.9404C46.7385 97.7481 46.8556 97.4774 46.8819 97.1282L48.5817 97.256C48.5447 97.7478 48.4045 98.1816 48.1613 98.5575C47.9174 98.9406 47.5767 99.2303 47.1391 99.4267C46.7014 99.6232 46.1726 99.6981 45.5525 99.6515C44.9325 99.6048 44.4241 99.4555 44.0273 99.2035C43.6235 98.9509 43.3285 98.6313 43.1426 98.2446C42.9495 97.8574 42.8704 97.4322 42.9053 96.9689L42.9149 96.8406C42.9599 96.242 43.1611 95.759 43.5184 95.3917C43.8752 95.0314 44.4069 94.7274 45.1136 94.4795L46.4054 94.0284C46.6262 93.9518 46.7867 93.8671 46.8868 93.7743C46.9799 93.681 47.0328 93.5488 47.0457 93.3777L47.0859 92.8432L47.4763 93.2273L43.2001 92.9058L43.3134 91.3984L48.8832 91.8173Z" fill="#050505"/>
<path d="M39.2897 90.2949C39.8935 90.4433 40.3858 90.6858 40.7668 91.0224C41.146 91.3659 41.405 91.7644 41.5437 92.218C41.6754 92.6699 41.6824 93.1353 41.5647 93.6142L39.9198 93.2098C39.9778 92.9738 39.977 92.7528 39.9172 92.5468C39.8489 92.3459 39.7303 92.1696 39.5616 92.0177C39.3911 91.8728 39.181 91.7696 38.9311 91.7081C38.6535 91.6399 38.4074 91.6382 38.1927 91.7032C37.9693 91.7734 37.7817 91.8929 37.6298 92.0616C37.4762 92.2373 37.3687 92.45 37.3073 92.6999C37.2441 92.9567 37.2407 93.195 37.297 93.415C37.3447 93.6401 37.4512 93.8356 37.6165 94.0014C37.7749 94.1654 37.9894 94.2807 38.2601 94.3473C38.51 94.4087 38.7483 94.4121 38.9752 94.3575C39.2021 94.3029 39.3837 94.2077 39.5201 94.072L41.1234 94.4662L39.6835 98.6606L35.0717 97.5266L35.43 96.0692L39.3652 97.0368L38.6018 97.3127L39.4375 94.9018L39.8075 95.1031C39.5379 95.3018 39.2369 95.4486 38.9044 95.5435C38.5633 95.6436 38.1533 95.6348 37.6744 95.517C37.1192 95.3805 36.6754 95.15 36.3431 94.8254C36.0021 94.506 35.7744 94.1299 35.66 93.6969C35.537 93.2693 35.5327 92.8229 35.647 92.3579L35.6803 92.2226C35.7947 91.7576 36.0158 91.352 36.3438 91.0057C36.6718 90.6595 37.0887 90.4161 37.5943 90.2754C38.093 90.1331 38.6581 90.1396 39.2897 90.2949Z" fill="#050505"/>
<path d="M33.2518 89.5862L31.1292 94.5434L29.7297 93.9441L31.8523 88.987L33.2518 89.5862ZM34.2112 92.1662L33.6627 93.4474L28.7646 91.3501L29.3132 90.0689L34.2112 92.1662Z" fill="#050505"/>
<path d="M23.9278 86.7606L22.9375 92.0349L21.477 90.9809L22.2737 87.0741L22.4694 87.3342L21.7391 86.8072L22.0651 86.9235L18.7386 89.0047L17.3564 88.0072L21.9023 85.2988L23.9278 86.7606ZM25.3527 84.1267L23.4706 86.7347L22.0709 85.7246L23.953 83.1166L25.3527 84.1267Z" fill="#050505"/>
<path d="M19.8551 79.2031C20.2086 79.5572 20.461 79.9314 20.6122 80.3257C20.7585 80.7149 20.8213 81.1016 20.8008 81.4857C20.7702 81.8697 20.6764 82.2361 20.5194 82.5846C20.3523 82.9332 20.1348 83.2413 19.8667 83.5089L19.715 83.6604C19.4368 83.9381 19.1258 84.1577 18.782 84.3192C18.4281 84.4806 18.0616 84.5738 17.6826 84.5987C17.3035 84.6237 16.9245 84.5627 16.5456 84.4159C16.1566 84.269 15.7929 84.0261 15.4546 83.6872C15.0103 83.2421 14.7378 82.7668 14.6371 82.2614C14.5263 81.7559 14.552 81.2607 14.7141 80.7756C14.8712 80.2957 15.1394 79.8663 15.5187 79.4876L15.9284 79.0786L19.602 82.7582L18.9116 83.4475L15.9727 80.5038L16.6853 80.5802C16.4374 80.8276 16.2603 81.0751 16.154 81.3226C16.0477 81.5702 16.0197 81.8102 16.07 82.0427C16.1103 82.2752 16.2339 82.4952 16.4409 82.7025C16.653 82.915 16.8803 83.0466 17.1229 83.0973C17.3654 83.148 17.6181 83.1179 17.881 83.007C18.1388 82.9011 18.4018 82.7143 18.6698 82.4467C18.9177 82.1992 19.0998 81.9467 19.2163 81.689C19.3277 81.4364 19.3582 81.1838 19.3079 80.9311C19.2575 80.6783 19.1112 80.4306 18.8688 80.1878C18.6466 79.9652 18.4219 79.8261 18.1945 79.7703C17.9671 79.7145 17.7649 79.7245 17.588 79.8001L16.4746 78.6848C16.8134 78.4678 17.1799 78.3392 17.5741 78.2991C17.9683 78.259 18.3599 78.3124 18.749 78.4593C19.138 78.6062 19.5067 78.8541 19.8551 79.2031Z" fill="#050505"/>
<path d="M14.8123 73.4196L13.4051 74.4375L13.5748 74.672L12.046 75.7779C11.8028 75.9539 11.6623 76.1437 11.6245 76.3475C11.5866 76.5513 11.6599 76.7806 11.8442 77.0354C11.9364 77.1628 12.0607 77.3286 12.2173 77.5329C12.3739 77.7372 12.5376 77.9451 12.7084 78.1568C12.8791 78.3685 13.0352 78.5599 13.1767 78.731L12.0041 79.5793C11.8961 79.4545 11.7714 79.3065 11.63 79.1354C11.4886 78.9643 11.3458 78.7852 11.2018 78.5983C11.0578 78.4114 10.925 78.234 10.8035 78.0661C10.4516 77.5797 10.2258 77.1211 10.126 76.6905C10.022 76.2541 10.0491 75.8464 10.2071 75.4674C10.3594 75.0927 10.6556 74.7461 11.0957 74.4277L14.0143 72.3164L14.8123 73.4196ZM16.0335 74.8517C16.2807 75.1933 16.4377 75.5384 16.5046 75.887C16.5673 76.2297 16.5381 76.5552 16.417 76.8633C16.2901 77.1757 16.0674 77.447 15.7489 77.6774C15.4014 77.9288 15.0528 78.0443 14.7029 78.0239C14.3472 78.0078 13.9999 77.8753 13.6611 77.6264C13.3165 77.3817 12.9913 77.048 12.6855 76.6253L11.9503 75.609L12.7233 75.0498L13.4648 76.0747C13.6408 76.3179 13.8377 76.4622 14.0557 76.5074C14.2636 76.551 14.469 76.4995 14.6716 76.3529C14.8627 76.2146 14.973 76.0378 15.0024 75.8225C15.0219 75.6055 14.9437 75.3754 14.7677 75.1322C14.6546 74.9759 14.528 74.8557 14.3879 74.7718C14.2379 74.6863 14.0669 74.6512 13.8751 74.6665C13.6833 74.6818 13.4644 74.7695 13.2186 74.9297L13.3273 74.3482C13.6783 74.1384 14.0149 74.0184 14.3371 73.9882C14.6551 73.9522 14.9587 74.0061 15.2479 74.1498C15.5329 74.2876 15.7947 74.5216 16.0335 74.8517Z" fill="#050505"/>
<path d="M13.2903 71.0155L8.11903 73.8035L7.47291 72.6051L9.69051 71.4095L9.70577 71.4378C8.97601 71.8312 8.32986 71.9807 7.76733 71.8861C7.20141 71.7852 6.75904 71.4391 6.44022 70.8477L6.33338 70.6496L7.63563 69.9475L7.83913 70.3249C8.06298 70.7401 8.3492 70.9999 8.69778 71.1043C9.04007 71.2121 9.42196 71.1523 9.84346 70.9251L12.4763 69.5057L13.2903 71.0155Z" fill="#050505"/>
<path d="M10.5285 64.7659C10.8286 65.5464 10.9031 66.2183 10.7522 66.7817C10.6013 67.3451 10.2407 67.7517 9.67061 68.0016L9.12431 66.5806C9.2875 66.4873 9.40452 66.3236 9.47536 66.0896C9.53697 65.8515 9.49724 65.549 9.35618 65.1821C9.24846 64.9019 9.11328 64.6897 8.95064 64.5455C8.77876 64.3972 8.60276 64.3577 8.42264 64.4269C8.26253 64.4885 8.16271 64.6073 8.12318 64.7833C8.07697 64.9618 8.10311 65.2389 8.20158 65.6145L8.32698 66.0602C8.51418 66.7463 8.5218 67.3138 8.34984 67.7628C8.17532 68.2051 7.85457 68.516 7.38759 68.6955C7.00067 68.8443 6.63994 68.8719 6.30539 68.7785C5.97084 68.6851 5.67145 68.4939 5.40723 68.205C5.14044 67.9094 4.92241 67.5414 4.75313 67.1011C4.48127 66.394 4.41875 65.7633 4.56558 65.2092C4.70574 64.6576 5.0655 64.2589 5.64486 64.0132L6.19115 65.4342C6.02129 65.5301 5.9071 65.6812 5.84857 65.8875C5.78338 66.0963 5.81105 66.3575 5.9316 66.671C6.02649 66.9178 6.14885 67.0967 6.29867 67.2075C6.44849 67.3184 6.60345 67.3431 6.76356 67.2815C6.91699 67.2225 7.00937 67.1143 7.04069 66.9567C7.07201 66.7992 7.04921 66.5706 6.97228 66.2709L6.84688 65.8252C6.66122 65.1233 6.64668 64.5278 6.80325 64.0388C6.95982 63.5498 7.2916 63.2078 7.7986 63.0129C8.16551 62.8718 8.52419 62.8488 8.87465 62.9438C9.21844 63.0413 9.53424 63.2453 9.82207 63.5558C10.1032 63.8689 10.3387 64.2722 10.5285 64.7659Z" fill="#050505"/>
<path d="M8.48319 58.6889L0.748047 59.8784L0.487328 58.183L8.22247 56.9935L8.48319 58.6889ZM8.25506 57.2054L6.81399 57.4271L6.29418 54.0469L7.73525 53.8253L8.25506 57.2054ZM5.04445 57.6992L3.60338 57.9208L3.12105 54.7844L4.56212 54.5627L5.04445 57.6992ZM1.96098 58.1734L0.519918 58.395L0.0115158 55.089L1.45258 54.8674L1.96098 58.1734Z" fill="#050505"/>
<path d="M7.63369 52.755L4.48612 50.9251L4.75403 50.9686L1.75894 52.6769L1.76331 50.8222L3.75984 49.7656L3.76025 49.5941L1.76856 48.5923L1.77268 46.8449L4.78131 48.4922L4.55627 48.4488L7.64836 46.5264L7.64396 48.3918L5.50758 49.6518L5.50718 49.8233L7.63778 51.0183L7.63369 52.755Z" fill="#050505"/>
<path d="M9.8614 46.1379L1.95668 44.7886L2.18577 43.4465L4.69034 43.874L4.64911 44.0519C4.07621 43.9251 3.61053 43.7223 3.25208 43.4436C2.88658 43.1637 2.63586 42.8273 2.49993 42.4343C2.35695 42.0402 2.32394 41.6176 2.4009 41.1667C2.46945 40.7651 2.60536 40.4149 2.80862 40.1161C3.01309 39.8103 3.26903 39.5639 3.57643 39.3771C3.87799 39.1821 4.21864 39.0553 4.59839 38.9969C4.9723 38.9302 5.37061 38.933 5.79332 39.0051L6.03638 39.0466C6.45205 39.1176 6.83283 39.2442 7.17874 39.4265C7.5176 39.6076 7.80105 39.8372 8.02908 40.1154C8.25832 40.3866 8.42217 40.7009 8.52065 41.0585C8.61328 41.4078 8.62352 41.7938 8.55136 42.2166C8.47681 42.6534 8.3214 43.0329 8.08514 43.3551C7.84304 43.669 7.52077 43.9004 7.11835 44.0492C6.70887 44.1968 6.217 44.2325 5.64273 44.1562L6.35617 43.7995L10.15 44.4471L9.8614 46.1379ZM7.0541 42.4504C7.10341 42.1615 7.07565 41.8994 6.97082 41.664C6.8672 41.4216 6.69879 41.2188 6.46561 41.0557C6.23243 40.8927 5.95027 40.7829 5.61915 40.7264C5.28802 40.6698 4.98895 40.6804 4.72192 40.7581C4.4549 40.8358 4.23642 40.9689 4.06648 41.1574C3.8895 41.3447 3.77576 41.5863 3.72525 41.8822C3.68196 42.1358 3.70095 42.3856 3.78224 42.6315C3.86353 42.8773 4.00487 43.09 4.20626 43.2694C4.40181 43.4405 4.65811 43.5531 4.97514 43.6072L5.36615 43.674C5.66909 43.7257 5.94179 43.6997 6.18424 43.5961C6.42085 43.4842 6.61476 43.3252 6.76597 43.119C6.91717 42.9128 7.01322 42.6899 7.0541 42.4504Z" fill="#050505"/>
<path d="M10.3407 35.7635C10.1716 36.2344 9.94122 36.6224 9.64939 36.9277C9.35997 37.2263 9.03726 37.4484 8.68126 37.594C8.32095 37.7304 7.94969 37.8022 7.56747 37.8093C7.18093 37.8072 6.8094 37.7422 6.45288 37.6142L6.25107 37.5418C5.88109 37.409 5.54966 37.2217 5.25678 36.9799C4.95958 36.7289 4.7187 36.4375 4.53414 36.1054C4.34957 35.7734 4.2427 35.4047 4.21354 34.9994C4.18007 34.5849 4.24421 34.1524 4.40599 33.7017C4.61847 33.1097 4.93168 32.6602 5.34563 32.3532C5.75526 32.037 6.21397 31.8485 6.72176 31.7878C7.22282 31.7247 7.72561 31.7836 8.23012 31.9647L8.775 32.1603L7.01843 37.0541L6.10021 36.7245L7.50547 32.8095L7.74093 33.4863C7.41131 33.368 7.11188 33.3137 6.84263 33.3233C6.57339 33.333 6.34442 33.4103 6.15573 33.5552C5.96273 33.6909 5.81673 33.8967 5.71773 34.1725C5.61632 34.455 5.59451 34.7168 5.6523 34.9577C5.71009 35.1987 5.84532 35.4143 6.058 35.6045C6.26395 35.7923 6.54519 35.9502 6.90171 36.0782C7.23133 36.1965 7.53749 36.2532 7.82019 36.2484C8.09616 36.2412 8.33763 36.1608 8.54461 36.0073C8.75158 35.8537 8.91302 35.6155 9.02891 35.2926C9.13515 34.9967 9.1649 34.734 9.11815 34.5046C9.0714 34.2752 8.97601 34.0967 8.83198 33.969L9.36438 32.4857C9.70539 32.6993 9.97826 32.9757 10.183 33.3149C10.3878 33.6542 10.5069 34.0311 10.5403 34.4455C10.5738 34.86 10.5073 35.2993 10.3407 35.7635Z" fill="#050505"/>
<path d="M11.7235 31.8973L6.51863 29.1725L7.1501 27.9663L9.3821 29.1347L9.36718 29.1632C8.63268 28.7787 8.14719 28.3269 7.91071 27.8078C7.67754 27.2824 7.71675 26.7221 8.02834 26.1269L8.13276 25.9274L9.44346 26.6136L9.24457 26.9935C9.0258 27.4114 8.97071 27.794 9.07933 28.1413C9.18161 28.4852 9.44487 28.7683 9.86911 28.9904L12.519 30.3776L11.7235 31.8973Z" fill="#050505"/>
<path d="M14.0857 27.6784L9.16657 24.4665L10.1044 23.0302L15.0235 26.2422L14.0857 27.6784ZM9.79792 25.8134L8.73869 25.1217L10.1044 23.0302L11.1636 23.7219L9.79792 25.8134ZM9.04523 23.5934C8.86939 23.8627 8.66967 24.0182 8.44607 24.06C8.22039 24.0919 7.99983 24.0375 7.78439 23.8969C7.56297 23.7523 7.42447 23.5722 7.36888 23.3567C7.31123 23.1312 7.37031 22.8839 7.54615 22.6146C7.72199 22.3453 7.92275 22.1947 8.14843 22.1628C8.37204 22.121 8.59455 22.1724 8.81597 22.317C9.03141 22.4577 9.16795 22.6407 9.22561 22.8662C9.2812 23.0817 9.22107 23.3241 9.04523 23.5934Z" fill="#050505"/>
<path d="M17.7626 23.0387C17.4397 23.4209 17.0883 23.7041 16.7082 23.8882C16.3327 24.0669 15.9528 24.1623 15.5683 24.1744C15.183 24.1764 14.8101 24.1139 14.4495 23.9871C14.088 23.8501 13.7626 23.6594 13.4732 23.415L13.3094 23.2766C13.0091 23.023 12.764 22.7317 12.574 22.4028C12.3832 22.0639 12.2593 21.7066 12.2023 21.3311C12.1453 20.9555 12.174 20.5727 12.2882 20.1827C12.4016 19.7826 12.6128 19.3997 12.9218 19.0339C13.3277 18.5534 13.7782 18.2416 14.2733 18.0985C14.7676 17.9453 15.2632 17.929 15.7602 18.0494C16.2518 18.1653 16.7023 18.3961 17.1118 18.7421L17.554 19.1156L14.1988 23.0877L13.4535 22.4581L16.1377 19.2805L16.122 19.9969C15.8544 19.7709 15.5928 19.6154 15.3372 19.5305C15.0815 19.4455 14.84 19.4379 14.6125 19.5078C14.3843 19.5676 14.1756 19.7094 13.9865 19.9332C13.7928 20.1626 13.6809 20.4002 13.6509 20.6462C13.6209 20.8921 13.6723 21.1414 13.8052 21.3939C13.9325 21.6418 14.1409 21.888 14.4303 22.1325C14.6978 22.3585 14.9649 22.5186 15.2315 22.6128C15.4926 22.7024 15.7469 22.7114 15.9945 22.6398C16.242 22.5683 16.4765 22.4014 16.6979 22.1394C16.9008 21.8991 17.0204 21.6634 17.0568 21.4321C17.0931 21.2008 17.0661 21.0002 16.9757 20.8303L17.9926 19.6264C18.2376 19.9456 18.3967 20.2999 18.4701 20.6893C18.5434 21.0787 18.5234 21.4735 18.41 21.8735C18.2966 22.2736 18.0808 22.662 17.7626 23.0387Z" fill="#050505"/>
<path d="M20.4042 19.8172L16.6075 15.3339L17.6465 14.454L19.2747 16.3766L19.201 16.439C18.8131 15.9808 18.547 15.5505 18.4029 15.1481C18.2642 14.7411 18.2502 14.3596 18.3609 14.0036C18.4715 13.6477 18.6987 13.3242 19.0423 13.0332L19.0996 12.9847C19.6231 12.5413 20.1668 12.376 20.7305 12.4886C21.295 12.5912 21.8706 12.9889 22.4572 13.6815L24.6257 16.2422L23.3167 17.3508L21.0858 14.7164C20.8826 14.4764 20.6454 14.3401 20.3743 14.3075C20.1031 14.2749 19.8476 14.3602 19.6076 14.5634C19.3622 14.7712 19.2301 15.0189 19.2113 15.3064C19.1933 15.5838 19.2906 15.848 19.5031 16.0989L21.7132 18.7087L20.4042 19.8172Z" fill="#050505"/>
<path d="M28.3425 14.1521C27.9063 14.4114 27.4834 14.5671 27.0738 14.6193C26.6667 14.6617 26.2825 14.6239 25.9215 14.506C25.5604 14.388 25.2363 14.2065 24.9493 13.9614C24.6586 13.7101 24.4147 13.4186 24.2175 13.0868L24.1135 12.9117C23.909 12.5676 23.7689 12.2061 23.6933 11.827C23.614 11.4418 23.6089 11.0624 23.6779 10.6889C23.7468 10.3153 23.8991 9.96293 24.1346 9.63175C24.3762 9.29691 24.706 9.00535 25.1237 8.75706C25.5784 8.48686 26.0338 8.33678 26.4899 8.30682C26.9423 8.27073 27.3661 8.34728 27.7612 8.53647C28.1563 8.72567 28.4867 9.01571 28.7522 9.40661L27.3053 10.2665C27.1457 10.0538 26.9403 9.91809 26.6893 9.85943C26.4407 9.79097 26.169 9.84437 25.8741 10.0196C25.6283 10.1657 25.459 10.3495 25.3662 10.5709C25.2795 10.7887 25.2601 11.0289 25.308 11.2914C25.3559 11.5539 25.4675 11.8326 25.6428 12.1275C25.8034 12.3979 25.9864 12.6217 26.1915 12.7991C26.3931 12.9703 26.6102 13.0699 26.843 13.0978C27.0782 13.116 27.328 13.0465 27.5922 12.8895C27.7888 12.7727 27.9346 12.6403 28.0296 12.4924C28.1271 12.3347 28.1792 12.1707 28.1861 12.0003C28.1954 11.8202 28.16 11.6417 28.0799 11.4648L29.5176 10.6104C29.7474 11.0392 29.8498 11.4772 29.8246 11.9245C29.7958 12.3656 29.6561 12.7811 29.4057 13.1711C29.1516 13.5549 28.7972 13.8819 28.3425 14.1521Z" fill="#050505"/>
<path d="M34.4648 11.1946C33.9988 11.3765 33.5549 11.4578 33.133 11.4384C32.7177 11.4164 32.3383 11.319 31.9946 11.1463C31.655 10.9643 31.357 10.7316 31.1005 10.4481C30.8481 10.1554 30.653 9.83257 30.5152 9.47972L30.4372 9.27999C30.2943 8.91383 30.2177 8.54091 30.2076 8.16124C30.2015 7.77231 30.263 7.39921 30.392 7.04192C30.521 6.68463 30.7288 6.36184 31.0152 6.07354C31.3056 5.77599 31.6739 5.54012 32.1199 5.36596C32.7058 5.1372 33.2505 5.07798 33.7539 5.18832C34.2614 5.28939 34.7048 5.51138 35.0843 5.85427C35.4611 6.19052 35.747 6.6083 35.9419 7.10761L36.1525 7.64688L31.3091 9.53803L30.9543 8.62927L34.829 7.11635L34.4735 7.73854C34.3461 7.41232 34.1903 7.1509 34.0061 6.95428C33.8219 6.75765 33.6132 6.63582 33.38 6.58877C33.1509 6.53246 32.8998 6.5576 32.6268 6.66418C32.3472 6.77336 32.1356 6.92889 31.9919 7.13077C31.8482 7.33265 31.7745 7.57625 31.7709 7.86157C31.7646 8.14024 31.8303 8.456 31.9681 8.80885C32.0955 9.13507 32.2539 9.40315 32.4433 9.61308C32.63 9.81636 32.8493 9.94559 33.101 10.0008C33.3527 10.0559 33.6384 10.0211 33.9579 9.89633C34.2509 9.78195 34.4684 9.63178 34.6107 9.44582C34.7529 9.25985 34.8248 9.07065 34.8264 8.87822L36.2944 8.30502C36.3575 8.70238 36.3284 9.08969 36.2072 9.46695C36.0859 9.84421 35.8801 10.1816 35.5896 10.4792C35.2991 10.7767 34.9242 11.0152 34.4648 11.1946Z" fill="#050505"/>
<path d="M44.431 4.55865L42.6401 3.62902L42.4551 2.42095L43.8858 0.998025L44.6936 2.02396L43.4819 2.75178L43.5208 3.00611L44.8932 3.3274L44.431 4.55865ZM42.2324 0.329315L42.3239 2.34343L41.3673 3.10811L39.4213 2.58183L39.9096 1.37912L41.1415 2.05813L41.3445 1.89689L40.9428 0.548475L42.2324 0.329315ZM39.6955 4.37274L41.3949 3.28826L42.5365 3.73165L43.0519 5.68085L41.7574 5.86822L41.7372 4.46139L41.4952 4.3683L40.5335 5.3832L39.6955 4.37274Z" fill="#050505"/>
<circle cx="49" cy="50" r="20" fill="#FA5241"/>
<path fill-rule="evenodd" clip-rule="evenodd" d="M37 55.5307C37 55.5307 38.5766 57.1073 41.2044 56.4065C43.6709 55.7488 44.7483 52.4671 45.0161 49.604C41.866 49.4808 38.9724 49.7369 38.0999 51.6999C38.4843 47.3814 42.2996 46.4733 45.6484 46.4263C45.2602 45.8875 45.0313 45.2263 45.0313 44.5115C45.0313 42.7006 46.4993 41.2327 48.3102 41.2327C50.121 41.2327 51.589 42.7006 51.589 44.5115C51.589 45.3921 51.2418 46.1915 50.6769 46.7805C53.5567 47.1006 55.9453 47.2735 58.0707 44.6926C58.0707 44.6926 57.2948 48.8443 53.516 49.7729C52.7625 49.9581 51.763 49.9882 50.6326 49.95C50.5517 50.2904 50.4422 50.6953 50.2966 51.1407C50.9883 51.3789 51.7132 51.719 52.4161 52.2022C55.219 54.1292 57.4963 57.2824 61 56.7569C61 56.7569 59.073 58.1584 56.0949 57.808C53.5347 57.5068 51.2335 54.8753 48.5233 54.6991C48.1788 55.1737 47.7855 55.633 47.3358 56.0562C44.3577 58.8591 37.7007 60.6109 37 55.5307Z" fill="white"/>
</svg>
