<svg width="40" height="40" viewBox="0 0 40 40" fill="none" xmlns="http://www.w3.org/2000/svg">
<g clip-path="url(#clip0_409_33)">
<path d="M35.7143 1.42773H4.28572C2.70776 1.42773 1.42857 2.70692 1.42857 4.28488V35.7134C1.42857 37.2914 2.70776 38.5706 4.28572 38.5706H35.7143C37.2922 38.5706 38.5714 37.2914 38.5714 35.7134V4.28488C38.5714 2.70692 37.2922 1.42773 35.7143 1.42773Z" stroke="#FA5241" stroke-width="1.5" stroke-linecap="round" stroke-linejoin="round"/>
<path d="M15.6857 30.1707V19.2278C15.6937 19.0597 15.7429 18.896 15.8288 18.7513C15.9148 18.6066 16.035 18.4851 16.1789 18.3977C16.3228 18.3102 16.4859 18.2594 16.654 18.2498C16.822 18.2401 16.9899 18.2718 17.1429 18.3421L26.6286 23.7993C26.7822 23.8939 26.909 24.0263 26.997 24.1839C27.085 24.3414 27.1312 24.5188 27.1312 24.6993C27.1312 24.8797 27.085 25.0571 26.997 25.2147C26.909 25.3722 26.7822 25.5046 26.6286 25.5993L17.1429 31.085C16.9873 31.1489 16.8186 31.1748 16.651 31.1605C16.4834 31.1462 16.3216 31.0921 16.1791 31.0027C16.0366 30.9133 15.9175 30.7911 15.8317 30.6464C15.7459 30.5017 15.6958 30.3386 15.6857 30.1707V30.1707Z" stroke="#FA5241" stroke-width="1.5" stroke-linecap="round" stroke-linejoin="round"/>
<path d="M1.42857 11.4277H38.5714" stroke="#FA5241" stroke-width="1.5" stroke-linecap="round" stroke-linejoin="round"/>
<path d="M11.4286 11.4277L15.7143 1.42773" stroke="#FA5241" stroke-width="1.5" stroke-linecap="round" stroke-linejoin="round"/>
<path d="M24.2857 11.4277L28.5714 1.42773" stroke="#FA5241" stroke-width="1.5" stroke-linecap="round" stroke-linejoin="round"/>
</g>
<defs>
<clipPath id="clip0_409_33">
<rect width="40" height="40" fill="white"/>
</clipPath>
</defs>
</svg>
