<svg width="60" height="60" viewBox="0 0 60 60" fill="none" xmlns="http://www.w3.org/2000/svg">
<path d="M53.5713 6.42773L38.957 21.042" stroke="#FA5241" stroke-width="2" stroke-linecap="round" stroke-linejoin="round"/>
<path d="M6.42847 6.42773L21.0428 21.042" stroke="#FA5241" stroke-width="2" stroke-linecap="round" stroke-linejoin="round"/>
<path d="M6.42847 53.5703L21.0428 38.9561" stroke="#FA5241" stroke-width="2" stroke-linecap="round" stroke-linejoin="round"/>
<path d="M53.5713 53.5703L38.957 38.9561" stroke="#FA5241" stroke-width="2" stroke-linecap="round" stroke-linejoin="round"/>
<path d="M30 57.8559C45.385 57.8559 57.8571 45.3838 57.8571 29.9987C57.8571 14.6137 45.385 2.1416 30 2.1416C14.6149 2.1416 2.14282 14.6137 2.14282 29.9987C2.14282 45.3838 14.6149 57.8559 30 57.8559Z" stroke="#FA5241" stroke-width="2" stroke-linecap="round" stroke-linejoin="round"/>
<path d="M29.9998 42.6412C36.9822 42.6412 42.6426 36.9808 42.6426 29.9983C42.6426 23.0159 36.9822 17.3555 29.9998 17.3555C23.0173 17.3555 17.3569 23.0159 17.3569 29.9983C17.3569 36.9808 23.0173 42.6412 29.9998 42.6412Z" stroke="#FA5241" stroke-width="2" stroke-linecap="round" stroke-linejoin="round"/>
</svg>
