<svg width="42" height="42" viewBox="0 0 42 42" fill="none" xmlns="http://www.w3.org/2000/svg">
<g clip-path="url(#clip0_350_16)">
<path d="M9.75 18C14.3063 18 18 14.3063 18 9.75C18 5.19365 14.3063 1.5 9.75 1.5C5.19365 1.5 1.5 5.19365 1.5 9.75C1.5 14.3063 5.19365 18 9.75 18Z" stroke="#050505" stroke-width="1.5" stroke-linecap="round" stroke-linejoin="round"/>
<path d="M32.25 18C36.8063 18 40.5 14.3063 40.5 9.75C40.5 5.19365 36.8063 1.5 32.25 1.5C27.6937 1.5 24 5.19365 24 9.75C24 14.3063 27.6937 18 32.25 18Z" stroke="#050505" stroke-width="1.5" stroke-linecap="round" stroke-linejoin="round"/>
<path d="M9.75 40.5C14.3063 40.5 18 36.8063 18 32.25C18 27.6937 14.3063 24 9.75 24C5.19365 24 1.5 27.6937 1.5 32.25C1.5 36.8063 5.19365 40.5 9.75 40.5Z" stroke="#050505" stroke-width="1.5" stroke-linecap="round" stroke-linejoin="round"/>
<path d="M32.25 40.5C36.8063 40.5 40.5 36.8063 40.5 32.25C40.5 27.6937 36.8063 24 32.25 24C27.6937 24 24 27.6937 24 32.25C24 36.8063 27.6937 40.5 32.25 40.5Z" stroke="#050505" stroke-width="1.5" stroke-linecap="round" stroke-linejoin="round"/>
</g>
<defs>
<clipPath id="clip0_350_16">
<rect width="42" height="42" fill="white"/>
</clipPath>
</defs>
</svg>
