<svg width="50" height="50" viewBox="0 0 50 50" fill="none" xmlns="http://www.w3.org/2000/svg">
<path d="M24.5357 33.928C33.4117 33.928 40.6071 26.7326 40.6071 17.8566C40.6071 8.98058 33.4117 1.78516 24.5357 1.78516C15.6597 1.78516 8.46426 8.98058 8.46426 17.8566C8.46426 26.7326 15.6597 33.928 24.5357 33.928Z" stroke="#FA5241" stroke-width="1.5" stroke-linecap="round" stroke-linejoin="round"/>
<path d="M24.5357 25.0006C28.4806 25.0006 31.6786 21.8026 31.6786 17.8577C31.6786 13.9128 28.4806 10.7148 24.5357 10.7148C20.5908 10.7148 17.3929 13.9128 17.3929 17.8577C17.3929 21.8026 20.5908 25.0006 24.5357 25.0006Z" stroke="#FA5241" stroke-width="1.5" stroke-linecap="round" stroke-linejoin="round"/>
<path d="M21.4286 33.6417L18.2857 46.856C18.2235 47.1072 18.1085 47.3422 17.9484 47.5454C17.7883 47.7486 17.5867 47.9154 17.3571 48.0346C17.1148 48.1398 16.8534 48.1941 16.5893 48.1941C16.3251 48.1941 16.0637 48.1398 15.8214 48.0346L3.96427 42.856C3.71556 42.7384 3.49671 42.5661 3.32416 42.3518C3.15161 42.1375 3.02983 41.887 2.96797 41.6189C2.90611 41.3509 2.90578 41.0723 2.96699 40.8041C3.0282 40.5358 3.14938 40.285 3.32141 40.0703L12.5 28.5703" stroke="#FA5241" stroke-width="1.5" stroke-linecap="round" stroke-linejoin="round"/>
<path d="M28.5714 33.4621L31.7857 46.8549C31.8496 47.1103 31.9692 47.3484 32.1359 47.5521C32.3026 47.7559 32.5123 47.9203 32.75 48.0335C32.9857 48.14 33.2413 48.1951 33.5 48.1951C33.7586 48.1951 34.0143 48.14 34.25 48.0335L46.0357 42.8549C46.2882 42.7387 46.51 42.5652 46.6836 42.3482C46.8572 42.1312 46.9778 41.8767 47.0357 41.6049C47.1034 41.339 47.1063 41.0608 47.0442 40.7936C46.982 40.5263 46.8566 40.2779 46.6786 40.0692L37.1071 27.8906" stroke="#FA5241" stroke-width="1.5" stroke-linecap="round" stroke-linejoin="round"/>
</svg>
