<svg width="40" height="40" viewBox="0 0 40 40" fill="none" xmlns="http://www.w3.org/2000/svg">
<g clip-path="url(#clip0_273_3120)">
<path d="M20 15.7144C30.2567 15.7144 38.5714 12.5165 38.5714 8.57157C38.5714 4.62668 30.2567 1.42871 20 1.42871C9.7433 1.42871 1.42859 4.62668 1.42859 8.57157C1.42859 12.5165 9.7433 15.7144 20 15.7144Z" stroke="#FA5241" stroke-width="1.5" stroke-linecap="round" stroke-linejoin="round"/>
<path d="M1.42859 8.57178V31.4289C1.42859 35.3718 9.74288 38.5718 20 38.5718C30.2572 38.5718 38.5714 35.3718 38.5714 31.4289V8.57178" stroke="#FA5241" stroke-width="1.5" stroke-linecap="round" stroke-linejoin="round"/>
<path d="M38.5714 20C38.5714 23.9429 30.2572 27.1429 20 27.1429C9.74288 27.1429 1.42859 23.9429 1.42859 20" stroke="#FA5241" stroke-width="1.5" stroke-linecap="round" stroke-linejoin="round"/>
</g>
<defs>
<clipPath id="clip0_273_3120">
<rect width="40" height="40" fill="white"/>
</clipPath>
</defs>
</svg>
