<svg width="40" height="40" viewBox="0 0 40 40" fill="none" xmlns="http://www.w3.org/2000/svg">
<path d="M7.14287 12.857C10.2988 12.857 12.8572 10.2987 12.8572 7.14275C12.8572 3.98684 10.2988 1.42847 7.14287 1.42847C3.98696 1.42847 1.42859 3.98684 1.42859 7.14275C1.42859 10.2987 3.98696 12.857 7.14287 12.857Z" stroke="#FA5241" stroke-width="1.5" stroke-linecap="round" stroke-linejoin="round"/>
<path d="M4.28573 18.5713H10C10.7578 18.5713 11.4845 18.8723 12.0203 19.4081C12.5561 19.9439 12.8572 20.6707 12.8572 21.4284V29.9999H1.42859V21.4284C1.42859 20.6707 1.72961 19.9439 2.26543 19.4081C2.80124 18.8723 3.52797 18.5713 4.28573 18.5713V18.5713Z" stroke="#FA5241" stroke-width="1.5" stroke-linecap="round" stroke-linejoin="round"/>
<path d="M1.42859 30V38.5714" stroke="#FA5241" stroke-width="1.5" stroke-linecap="round" stroke-linejoin="round"/>
<path d="M12.8572 30V38.5714" stroke="#FA5241" stroke-width="1.5" stroke-linecap="round" stroke-linejoin="round"/>
<path d="M24.2857 15.7141L31.4286 8.57129L38.5714 15.7141" stroke="#FA5241" stroke-width="1.5" stroke-linecap="round" stroke-linejoin="round"/>
<path d="M24.2857 27.1428L31.4286 34.2857L38.5714 27.1428" stroke="#FA5241" stroke-width="1.5" stroke-linecap="round" stroke-linejoin="round"/>
</svg>
