<svg width="40" height="40" viewBox="0 0 40 40" fill="none" xmlns="http://www.w3.org/2000/svg">
<path d="M30.4 4.40002H9.6C9.12047 4.41319 8.65077 4.53902 8.22887 4.76734C7.80698 4.99566 7.44473 5.32006 7.17143 5.71431L1.97143 12.9143C1.58531 13.46 1.39247 14.1189 1.42353 14.7866C1.45459 15.4544 1.70776 16.0926 2.14286 16.6L17.7429 34.5715C18.0099 34.9156 18.3522 35.1941 18.7434 35.3857C19.1346 35.5773 19.5644 35.6769 20 35.6769C20.4356 35.6769 20.8654 35.5773 21.2566 35.3857C21.6479 35.1941 21.9901 34.9156 22.2571 34.5715L37.8571 16.6C38.2922 16.0926 38.5454 15.4544 38.5765 14.7866C38.6075 14.1189 38.4147 13.46 38.0286 12.9143L32.8286 5.71431C32.5553 5.32006 32.193 4.99566 31.7711 4.76734C31.3492 4.53902 30.8795 4.41319 30.4 4.40002V4.40002Z" stroke="#FA5241" stroke-width="1.5" stroke-linecap="round" stroke-linejoin="round"/>
<path d="M18.5143 4.37146L11.5428 15.1715L20 35.6" stroke="#FA5241" stroke-width="1.5" stroke-linecap="round" stroke-linejoin="round"/>
<path d="M21.5714 4.37146L28.5143 15.1715L20 35.6" stroke="#FA5241" stroke-width="1.5" stroke-linecap="round" stroke-linejoin="round"/>
<path d="M1.48572 15.1715H38.5143" stroke="#FA5241" stroke-width="1.5" stroke-linecap="round" stroke-linejoin="round"/>
</svg>
