<svg width="40" height="40" viewBox="0 0 40 40" fill="none" xmlns="http://www.w3.org/2000/svg">
<path d="M24.2857 14.2846C25.8637 14.2846 27.1429 13.0054 27.1429 11.4275C27.1429 9.8495 25.8637 8.57031 24.2857 8.57031C22.7078 8.57031 21.4286 9.8495 21.4286 11.4275C21.4286 13.0054 22.7078 14.2846 24.2857 14.2846Z" stroke="#FA5241" stroke-width="1.5" stroke-linecap="round" stroke-linejoin="round"/>
<path d="M12.8572 28.57C13.6461 28.57 14.2857 27.9304 14.2857 27.1415C14.2857 26.3525 13.6461 25.7129 12.8572 25.7129C12.0682 25.7129 11.4286 26.3525 11.4286 27.1415C11.4286 27.9304 12.0682 28.57 12.8572 28.57Z" stroke="#FA5241" stroke-width="1.5" stroke-linecap="round" stroke-linejoin="round"/>
<path d="M12.8571 18.5698C14.4351 18.5698 15.7143 17.2906 15.7143 15.7126C15.7143 14.1347 14.4351 12.8555 12.8571 12.8555C11.2792 12.8555 10 14.1347 10 15.7126C10 17.2906 11.2792 18.5698 12.8571 18.5698Z" stroke="#FA5241" stroke-width="1.5" stroke-linecap="round" stroke-linejoin="round"/>
<path d="M27.2 35.0849C27.1682 34.5307 26.9756 33.9978 26.6458 33.5513C26.316 33.1047 25.8632 32.764 25.3429 32.5706C24.0506 32.1459 22.9522 31.2741 22.2452 30.1119C21.5382 28.9498 21.269 27.5736 21.4859 26.2307C21.7029 24.8879 22.3917 23.6664 23.4287 22.786C24.4656 21.9056 25.7826 21.424 27.1429 21.4277H32.4857C33.4021 21.4303 34.3056 21.2124 35.1201 20.7925C35.9346 20.3726 36.6362 19.7629 37.1657 19.015C37.6951 18.267 38.0369 17.4027 38.1622 16.495C38.2875 15.5872 38.1927 14.6626 37.8857 13.7992C36.7493 10.5905 34.7529 7.75589 32.1146 5.60501C29.4763 3.45414 26.2976 2.06975 22.9258 1.60309C19.554 1.13643 16.1188 1.60546 12.9955 2.95894C9.87215 4.31241 7.18091 6.49826 5.21577 9.27767C3.25063 12.0571 2.08718 15.3231 1.85253 18.719C1.61789 22.1148 2.32108 25.5099 3.88527 28.5332C5.44946 31.5564 7.81449 34.0917 10.722 35.8618C13.6294 37.632 16.9675 38.5691 20.3714 38.5706C22.0525 38.5753 23.7259 38.3445 25.3429 37.8849C25.9368 37.7185 26.4511 37.3441 26.792 36.8301C27.1329 36.3161 27.2777 35.6967 27.2 35.0849V35.0849Z" stroke="#FA5241" stroke-width="1.5" stroke-linecap="round" stroke-linejoin="round"/>
</svg>
