<svg width="40" height="40" viewBox="0 0 40 40" fill="none" xmlns="http://www.w3.org/2000/svg">
<path d="M30.4 4.39844H9.6C9.12047 4.4116 8.65077 4.53744 8.22887 4.76576C7.80698 4.99408 7.44473 5.31847 7.17143 5.71272L1.97143 12.9127C1.58531 13.4584 1.39247 14.1173 1.42353 14.7851C1.45459 15.4528 1.70776 16.091 2.14286 16.5984L17.7429 34.5699C18.0099 34.914 18.3522 35.1925 18.7434 35.3841C19.1346 35.5757 19.5644 35.6753 20 35.6753C20.4356 35.6753 20.8654 35.5757 21.2566 35.3841C21.6479 35.1925 21.9901 34.914 22.2571 34.5699L37.8571 16.5984C38.2923 16.091 38.5454 15.4528 38.5765 14.7851C38.6075 14.1173 38.4147 13.4584 38.0286 12.9127L32.8286 5.71272C32.5553 5.31847 32.193 4.99408 31.7711 4.76576C31.3492 4.53744 30.8795 4.4116 30.4 4.39844V4.39844Z" stroke="#FA5241" stroke-width="1.5" stroke-linecap="round" stroke-linejoin="round"/>
<path d="M18.5143 4.37109L11.5428 15.1711L20 35.5997" stroke="#FA5241" stroke-width="1.5" stroke-linecap="round" stroke-linejoin="round"/>
<path d="M21.5714 4.37109L28.5143 15.1711L20 35.5997" stroke="#FA5241" stroke-width="1.5" stroke-linecap="round" stroke-linejoin="round"/>
<path d="M1.48572 15.1719H38.5143" stroke="#FA5241" stroke-width="1.5" stroke-linecap="round" stroke-linejoin="round"/>
</svg>
