<svg width="40" height="40" viewBox="0 0 40 40" fill="none" xmlns="http://www.w3.org/2000/svg">
<g clip-path="url(#clip0_487_199)">
<path d="M9.28561 17.144C13.625 17.144 17.1428 13.6262 17.1428 9.28683C17.1428 4.94745 13.625 1.42969 9.28561 1.42969C4.94623 1.42969 1.42847 4.94745 1.42847 9.28683C1.42847 13.6262 4.94623 17.144 9.28561 17.144Z" stroke="#FA5241" stroke-width="1.5" stroke-linecap="round" stroke-linejoin="round"/>
<path d="M30.7142 17.144C35.0536 17.144 38.5713 13.6262 38.5713 9.28683C38.5713 4.94745 35.0536 1.42969 30.7142 1.42969C26.3748 1.42969 22.8571 4.94745 22.8571 9.28683C22.8571 13.6262 26.3748 17.144 30.7142 17.144Z" stroke="#FA5241" stroke-width="1.5" stroke-linecap="round" stroke-linejoin="round"/>
<path d="M9.28561 38.5737C13.625 38.5737 17.1428 35.0559 17.1428 30.7165C17.1428 26.3771 13.625 22.8594 9.28561 22.8594C4.94623 22.8594 1.42847 26.3771 1.42847 30.7165C1.42847 35.0559 4.94623 38.5737 9.28561 38.5737Z" stroke="#FA5241" stroke-width="1.5" stroke-linecap="round" stroke-linejoin="round"/>
<path d="M30.7141 38.5737C35.0535 38.5737 38.5712 35.0559 38.5712 30.7165C38.5712 26.3771 35.0535 22.8594 30.7141 22.8594C26.3747 22.8594 22.8569 26.3771 22.8569 30.7165C22.8569 35.0559 26.3747 38.5737 30.7141 38.5737Z" stroke="#FA5241" stroke-width="1.5" stroke-linecap="round" stroke-linejoin="round"/>
</g>
<defs>
<clipPath id="clip0_487_199">
<rect width="40" height="40" fill="white"/>
</clipPath>
</defs>
</svg>
