<svg width="50" height="50" viewBox="0 0 50 50" fill="none" xmlns="http://www.w3.org/2000/svg">
<path d="M44.6427 5.35547L32.4641 17.534" stroke="#FA5241" stroke-width="1.5" stroke-linecap="round" stroke-linejoin="round"/>
<path d="M5.35718 5.35547L17.5357 17.534" stroke="#FA5241" stroke-width="1.5" stroke-linecap="round" stroke-linejoin="round"/>
<path d="M5.35718 44.6434L17.5357 32.4648" stroke="#FA5241" stroke-width="1.5" stroke-linecap="round" stroke-linejoin="round"/>
<path d="M44.6427 44.6434L32.4641 32.4648" stroke="#FA5241" stroke-width="1.5" stroke-linecap="round" stroke-linejoin="round"/>
<path d="M24.9999 48.2137C37.8208 48.2137 48.2142 37.8203 48.2142 24.9994C48.2142 12.1785 37.8208 1.78516 24.9999 1.78516C12.179 1.78516 1.78564 12.1785 1.78564 24.9994C1.78564 37.8203 12.179 48.2137 24.9999 48.2137Z" stroke="#FA5241" stroke-width="1.5" stroke-linecap="round" stroke-linejoin="round"/>
<path d="M24.9998 35.5363C30.8185 35.5363 35.5355 30.8193 35.5355 25.0006C35.5355 19.1818 30.8185 14.4648 24.9998 14.4648C19.1811 14.4648 14.4641 19.1818 14.4641 25.0006C14.4641 30.8193 19.1811 35.5363 24.9998 35.5363Z" stroke="#FA5241" stroke-width="1.5" stroke-linecap="round" stroke-linejoin="round"/>
</svg>
