<svg width="40" height="40" viewBox="0 0 40 40" fill="none" xmlns="http://www.w3.org/2000/svg">
<path d="M8.57145 38.5714C12.5163 38.5714 15.7143 35.3734 15.7143 31.4285C15.7143 27.4836 12.5163 24.2856 8.57145 24.2856C4.62655 24.2856 1.42859 27.4836 1.42859 31.4285C1.42859 35.3734 4.62655 38.5714 8.57145 38.5714Z" stroke="#FA5241" stroke-width="1.5" stroke-linecap="round" stroke-linejoin="round"/>
<path d="M15.7143 8.57155V4.28584C15.7143 3.52808 15.4133 2.80135 14.8775 2.26553C14.3417 1.72972 13.6149 1.4287 12.8572 1.4287H9.48576C8.8133 1.41647 8.15808 1.64185 7.63546 2.06518C7.11283 2.48851 6.75629 3.08264 6.62862 3.74298L1.57147 30.0001" stroke="#FA5241" stroke-width="1.5" stroke-linecap="round" stroke-linejoin="round"/>
<path d="M12.8572 15.7144H27.1429" stroke="#FA5241" stroke-width="1.5" stroke-linecap="round" stroke-linejoin="round"/>
<path d="M15.7143 22.8574V31.4288" stroke="#FA5241" stroke-width="1.5" stroke-linecap="round" stroke-linejoin="round"/>
<path d="M31.4286 38.5714C35.3735 38.5714 38.5714 35.3734 38.5714 31.4285C38.5714 27.4836 35.3735 24.2856 31.4286 24.2856C27.4837 24.2856 24.2857 27.4836 24.2857 31.4285C24.2857 35.3734 27.4837 38.5714 31.4286 38.5714Z" stroke="#FA5241" stroke-width="1.5" stroke-linecap="round" stroke-linejoin="round"/>
<path d="M24.2857 8.57155V4.28584C24.2857 3.52808 24.5867 2.80135 25.1225 2.26553C25.6584 1.72972 26.3851 1.4287 27.1428 1.4287H30.5143C31.1867 1.41647 31.8419 1.64185 32.3646 2.06518C32.8872 2.48851 33.2437 3.08264 33.3714 3.74298L38.4857 30.0001" stroke="#FA5241" stroke-width="1.5" stroke-linecap="round" stroke-linejoin="round"/>
<path d="M24.2857 22.8574V31.4288" stroke="#FA5241" stroke-width="1.5" stroke-linecap="round" stroke-linejoin="round"/>
</svg>
