<svg width="42" height="42" viewBox="0 0 42 42" fill="none" xmlns="http://www.w3.org/2000/svg">
<g clip-path="url(#clip0_180_4018)">
<path d="M26.4299 36.21C25.0747 37.5652 23.4658 38.6403 21.6951 39.3737C19.9244 40.1072 18.0265 40.4847 16.1099 40.4847C12.2392 40.4847 8.52698 38.947 5.78994 36.21C3.05291 33.473 1.51526 29.7608 1.51526 25.89C1.51526 22.0192 3.05291 18.307 5.78994 15.57L19.8599 1.5L26.4299 8.07L13.5299 21C12.7007 22.0195 12.279 23.3103 12.3464 24.6227C12.4138 25.9352 12.9654 27.176 13.8947 28.1053C14.8239 29.0345 16.0648 29.5862 17.3772 29.6535C18.6896 29.7209 19.9804 29.2992 20.9999 28.47L33.8999 15.57L40.4999 22.14L26.4299 36.21Z" stroke="#050505" stroke-width="1.5" stroke-linecap="round" stroke-linejoin="round"/>
<path d="M27.5699 21.9297L34.1399 28.4997" stroke="#050505" stroke-width="1.5" stroke-linecap="round" stroke-linejoin="round"/>
<path d="M13.5 7.85938L20.07 14.4294" stroke="#050505" stroke-width="1.5" stroke-linecap="round" stroke-linejoin="round"/>
</g>
<defs>
<clipPath id="clip0_180_4018">
<rect width="42" height="42" fill="white"/>
</clipPath>
</defs>
</svg>
