<svg width="24" height="24" viewBox="0 0 24 24" fill="none" xmlns="http://www.w3.org/2000/svg">
<g clip-path="url(#clip0_273_3401)">
<path d="M2.57143 4.28613C2.11678 4.28613 1.68074 4.46674 1.35925 4.78824C1.03776 5.10973 0.857147 5.54576 0.857147 6.00042V21.429C0.857147 21.8836 1.03776 22.3197 1.35925 22.6412C1.68074 22.9627 2.11678 23.1433 2.57143 23.1433H21.4286C21.8832 23.1433 22.3193 22.9627 22.6408 22.6412C22.9622 22.3197 23.1429 21.8836 23.1429 21.429V6.00042C23.1429 5.54576 22.9622 5.10973 22.6408 4.78824C22.3193 4.46674 21.8832 4.28613 21.4286 4.28613H18" stroke="#FA5241" stroke-linecap="round" stroke-linejoin="round"/>
<path d="M6 0.857422V7.71456" stroke="#FA5241" stroke-linecap="round" stroke-linejoin="round"/>
<path d="M18 0.857422V7.71456" stroke="#FA5241" stroke-linecap="round" stroke-linejoin="round"/>
<path d="M6 4.28613H14.5714" stroke="#FA5241" stroke-linecap="round" stroke-linejoin="round"/>
<path d="M6.00001 13.7143C6.4734 13.7143 6.85715 13.3305 6.85715 12.8571C6.85715 12.3838 6.4734 12 6.00001 12C5.52662 12 5.14287 12.3838 5.14287 12.8571C5.14287 13.3305 5.52662 13.7143 6.00001 13.7143Z" stroke="#FA5241" stroke-linecap="round" stroke-linejoin="round"/>
<path d="M12 13.7143C12.4734 13.7143 12.8572 13.3305 12.8572 12.8571C12.8572 12.3838 12.4734 12 12 12C11.5266 12 11.1429 12.3838 11.1429 12.8571C11.1429 13.3305 11.5266 13.7143 12 13.7143Z" stroke="#FA5241" stroke-linecap="round" stroke-linejoin="round"/>
<path d="M18 13.7143C18.4734 13.7143 18.8571 13.3305 18.8571 12.8571C18.8571 12.3838 18.4734 12 18 12C17.5266 12 17.1429 12.3838 17.1429 12.8571C17.1429 13.3305 17.5266 13.7143 18 13.7143Z" stroke="#FA5241" stroke-linecap="round" stroke-linejoin="round"/>
<path d="M6.00001 18.8578C6.4734 18.8578 6.85715 18.4741 6.85715 18.0007C6.85715 17.5273 6.4734 17.1436 6.00001 17.1436C5.52662 17.1436 5.14287 17.5273 5.14287 18.0007C5.14287 18.4741 5.52662 18.8578 6.00001 18.8578Z" stroke="#FA5241" stroke-linecap="round" stroke-linejoin="round"/>
</g>
<defs>
<clipPath id="clip0_273_3401">
<rect width="24" height="24" fill="white"/>
</clipPath>
</defs>
</svg>
