<svg width="40" height="40" viewBox="0 0 40 40" fill="none" xmlns="http://www.w3.org/2000/svg">
<path d="M20 38.2565C21.876 38.2565 23.7337 37.887 25.4669 37.1691C27.2001 36.4512 28.775 35.3989 30.1015 34.0723C31.4281 32.7458 32.4804 31.1709 33.1983 29.4377C33.9162 27.7045 34.2857 25.8468 34.2857 23.9708V16.028C34.2859 12.5185 32.9943 9.13174 30.6571 6.51367" stroke="#FA5241" stroke-width="1.5" stroke-linecap="round" stroke-linejoin="round"/>
<path d="M5.7143 19.1992V23.9706C5.71334 26.7829 6.54245 29.5329 8.09771 31.876C9.65298 34.219 11.8652 36.0509 14.4572 37.1421" stroke="#FA5241" stroke-width="1.5" stroke-linecap="round" stroke-linejoin="round"/>
<path d="M27.1429 3.65608C23.8617 1.76176 19.9625 1.24841 16.3029 2.22895C12.6433 3.20949 9.52303 5.60361 7.62857 8.88465C6.84851 10.2319 6.29813 11.6996 6 13.2275" stroke="#FA5241" stroke-width="1.5" stroke-linecap="round" stroke-linejoin="round"/>
<path d="M18.5143 10.0286C19.5651 9.81047 20.6515 9.83095 21.6934 10.0886C22.7353 10.3462 23.7061 10.8344 24.5342 11.5171C25.3622 12.1999 26.0265 13.0598 26.478 14.0335C26.9295 15.0072 27.1567 16.0697 27.1429 17.1429V21.7429" stroke="#FA5241" stroke-width="1.5" stroke-linecap="round" stroke-linejoin="round"/>
<path d="M25.3143 27.7423C24.3421 28.8252 23.0624 29.5853 21.6465 29.9209C20.2305 30.2565 18.7458 30.1516 17.391 29.6203C16.0363 29.089 14.8762 28.1565 14.0659 26.9478C13.2556 25.739 12.8339 24.3116 12.8571 22.8566V17.1423C12.8517 16.161 13.0461 15.1889 13.4285 14.2852" stroke="#FA5241" stroke-width="1.5" stroke-linecap="round" stroke-linejoin="round"/>
<path d="M20 17.457V22.2285" stroke="#FA5241" stroke-width="1.5" stroke-linecap="round" stroke-linejoin="round"/>
</svg>
