<svg width="40" height="40" viewBox="0 0 40 40" fill="none" xmlns="http://www.w3.org/2000/svg">
<g clip-path="url(#clip0_487_628)">
<path d="M4.2857 17.1445H7.14284C7.52172 17.1445 7.88509 17.295 8.153 17.563C8.42091 17.8309 8.57142 18.1942 8.57142 18.5731V25.716C8.57142 26.0948 8.42091 26.4582 8.153 26.7261C7.88509 26.994 7.52172 27.1445 7.14284 27.1445H4.2857C3.52794 27.1445 2.80121 26.8435 2.2654 26.3077C1.72958 25.7719 1.42856 25.0452 1.42856 24.2874V20.0017C1.42856 19.2439 1.72958 18.5172 2.2654 17.9814C2.80121 17.4456 3.52794 17.1445 4.2857 17.1445V17.1445Z" stroke="#FA5241" stroke-width="1.5" stroke-linecap="round" stroke-linejoin="round"/>
<path d="M35.7143 27.1445H32.8571C32.4782 27.1445 32.1149 26.994 31.847 26.7261C31.5791 26.4582 31.4286 26.0948 31.4286 25.716V18.5731C31.4286 18.1942 31.5791 17.8309 31.847 17.5629C32.1149 17.295 32.4782 17.1445 32.8571 17.1445H35.7143C36.472 17.1445 37.1988 17.4456 37.7346 17.9814C38.2704 18.5172 38.5714 19.2439 38.5714 20.0017V24.2874C38.5714 25.0451 38.2704 25.7719 37.7346 26.3077C37.1988 26.8435 36.472 27.1445 35.7143 27.1445V27.1445Z" stroke="#FA5241" stroke-width="1.5" stroke-linecap="round" stroke-linejoin="round"/>
<path d="M27.1429 35.0017C28.6584 35.0017 30.1118 34.3996 31.1835 33.328C32.2551 32.2564 32.8571 30.8029 32.8571 29.2874V27.1445" stroke="#FA5241" stroke-width="1.5" stroke-linecap="round" stroke-linejoin="round"/>
<path d="M23.5714 31.4297C24.5186 31.4297 25.427 31.806 26.0968 32.4757C26.7666 33.1455 27.1428 34.0539 27.1428 35.0011C27.1428 35.9483 26.7666 36.8567 26.0968 37.5265C25.427 38.1963 24.5186 38.5725 23.5714 38.5725H19.2857C18.3385 38.5725 17.4301 38.1963 16.7603 37.5265C16.0905 36.8567 15.7143 35.9483 15.7143 35.0011C15.7143 34.0539 16.0905 33.1455 16.7603 32.4757C17.4301 31.806 18.3385 31.4297 19.2857 31.4297H23.5714Z" stroke="#FA5241" stroke-width="1.5" stroke-linecap="round" stroke-linejoin="round"/>
<path d="M7.14285 17.144V14.2868C7.14285 10.8769 8.49744 7.60664 10.9086 5.19546C13.3198 2.78428 16.5901 1.42969 20 1.42969C23.4099 1.42969 26.6802 2.78428 29.0914 5.19546C31.5025 7.60664 32.8571 10.8769 32.8571 14.2868V17.144" stroke="#FA5241" stroke-width="1.5" stroke-linecap="round" stroke-linejoin="round"/>
<path d="M15.7143 11.4297V15.7154" stroke="#FA5241" stroke-width="1.5" stroke-linecap="round" stroke-linejoin="round"/>
<path d="M24.2857 11.4297V15.7154" stroke="#FA5241" stroke-width="1.5" stroke-linecap="round" stroke-linejoin="round"/>
<path d="M15.7143 21.4297C15.7143 25.2297 24.2857 25.2297 24.2857 21.4297" stroke="#FA5241" stroke-width="1.5" stroke-linecap="round" stroke-linejoin="round"/>
</g>
<defs>
<clipPath id="clip0_487_628">
<rect width="40" height="40" fill="white"/>
</clipPath>
</defs>
</svg>
