<svg width="40" height="40" viewBox="0 0 40 40" fill="none" xmlns="http://www.w3.org/2000/svg">
<path d="M24.2856 14.2885C25.8636 14.2885 27.1428 13.0093 27.1428 11.4314C27.1428 9.85341 25.8636 8.57422 24.2856 8.57422C22.7077 8.57422 21.4285 9.85341 21.4285 11.4314C21.4285 13.0093 22.7077 14.2885 24.2856 14.2885Z" stroke="#FA5241" stroke-width="1.5" stroke-linecap="round" stroke-linejoin="round"/>
<path d="M12.857 28.572C13.646 28.572 14.2856 27.9324 14.2856 27.1434C14.2856 26.3544 13.646 25.7148 12.857 25.7148C12.0681 25.7148 11.4285 26.3544 11.4285 27.1434C11.4285 27.9324 12.0681 28.572 12.857 28.572Z" stroke="#FA5241" stroke-width="1.5" stroke-linecap="round" stroke-linejoin="round"/>
<path d="M12.8571 18.5737C14.4351 18.5737 15.7143 17.2945 15.7143 15.7165C15.7143 14.1386 14.4351 12.8594 12.8571 12.8594C11.2792 12.8594 10 14.1386 10 15.7165C10 17.2945 11.2792 18.5737 12.8571 18.5737Z" stroke="#FA5241" stroke-width="1.5" stroke-linecap="round" stroke-linejoin="round"/>
<path d="M27.2 35.0868C27.1682 34.5326 26.9756 33.9997 26.6458 33.5532C26.316 33.1067 25.8632 32.7659 25.3429 32.5725C24.0506 32.1478 22.9522 31.276 22.2452 30.1139C21.5382 28.9518 21.269 27.5756 21.4859 26.2327C21.7029 24.8898 22.3917 23.6684 23.4287 22.788C24.4656 21.9076 25.7826 21.4259 27.1429 21.4297H32.4857C33.4021 21.4322 34.3056 21.2144 35.1201 20.7945C35.9346 20.3745 36.6362 19.7649 37.1657 19.0169C37.6951 18.269 38.0369 17.4047 38.1622 16.4969C38.2875 15.5891 38.1927 14.6645 37.8857 13.8011C36.7493 10.5925 34.7529 7.75784 32.1146 5.60697C29.4763 3.45609 26.2976 2.0717 22.9258 1.60504C19.554 1.13839 16.1188 1.60742 12.9955 2.96089C9.87215 4.31436 7.18091 6.50021 5.21577 9.27962C3.25063 12.059 2.08718 15.3251 1.85253 18.7209C1.61789 22.1168 2.32108 25.5118 3.88527 28.5351C5.44946 31.5584 7.81449 34.0936 10.722 35.8638C13.6294 37.634 16.9675 38.571 20.3714 38.5726C22.0525 38.5772 23.7259 38.3464 25.3429 37.8868C25.9368 37.7204 26.4511 37.3461 26.792 36.8321C27.1329 36.3181 27.2777 35.6987 27.2 35.0868V35.0868Z" stroke="#FA5241" stroke-width="1.5" stroke-linecap="round" stroke-linejoin="round"/>
</svg>
