<svg width="50" height="50" viewBox="0 0 50 50" fill="none" xmlns="http://www.w3.org/2000/svg">
<path d="M16.0714 46.4269C23.9611 46.4269 30.3571 40.031 30.3571 32.1412C30.3571 24.2514 23.9611 17.8555 16.0714 17.8555C8.18158 17.8555 1.78564 24.2514 1.78564 32.1412C1.78564 40.031 8.18158 46.4269 16.0714 46.4269Z" stroke="#FA5241" stroke-width="1.5" stroke-linecap="round" stroke-linejoin="round"/>
<path d="M33.9285 46.4269C41.8183 46.4269 48.2143 40.031 48.2143 32.1412C48.2143 24.2514 41.8183 17.8555 33.9285 17.8555C26.0388 17.8555 19.6428 24.2514 19.6428 32.1412C19.6428 40.031 26.0388 46.4269 33.9285 46.4269Z" stroke="#FA5241" stroke-width="1.5" stroke-linecap="round" stroke-linejoin="round"/>
<path d="M24.9999 32.1417C32.8897 32.1417 39.2857 25.7458 39.2857 17.856C39.2857 9.96624 32.8897 3.57031 24.9999 3.57031C17.1102 3.57031 10.7142 9.96624 10.7142 17.856C10.7142 25.7458 17.1102 32.1417 24.9999 32.1417Z" stroke="#FA5241" stroke-width="1.5" stroke-linecap="round" stroke-linejoin="round"/>
</svg>
