<svg width="40" height="40" viewBox="0 0 40 40" fill="none" xmlns="http://www.w3.org/2000/svg">
<path d="M36.8857 15.7153H3.11429C1.51429 15.7153 0.828575 13.9725 2.08572 13.1439L18.9714 2.08674C19.2832 1.90335 19.6383 1.80664 20 1.80664C20.3617 1.80664 20.7168 1.90335 21.0286 2.08674L37.9143 13.1439C39.1714 13.9725 38.4857 15.7153 36.8857 15.7153Z" stroke="#FA5241" stroke-width="1.5" stroke-linecap="round" stroke-linejoin="round"/>
<path d="M37.1429 31.4297H2.85716C2.06818 31.4297 1.42859 32.0693 1.42859 32.8583V37.144C1.42859 37.933 2.06818 38.5725 2.85716 38.5725H37.1429C37.9319 38.5725 38.5714 37.933 38.5714 37.144V32.8583C38.5714 32.0693 37.9319 31.4297 37.1429 31.4297Z" stroke="#FA5241" stroke-width="1.5" stroke-linecap="round" stroke-linejoin="round"/>
<path d="M5.71429 15.7148V31.4291" stroke="#FA5241" stroke-width="1.5" stroke-linecap="round" stroke-linejoin="round"/>
<path d="M12.8572 15.7148V31.4291" stroke="#FA5241" stroke-width="1.5" stroke-linecap="round" stroke-linejoin="round"/>
<path d="M20 15.7148V31.4291" stroke="#FA5241" stroke-width="1.5" stroke-linecap="round" stroke-linejoin="round"/>
<path d="M27.1429 15.7148V31.4291" stroke="#FA5241" stroke-width="1.5" stroke-linecap="round" stroke-linejoin="round"/>
<path d="M34.2857 15.7148V31.4291" stroke="#FA5241" stroke-width="1.5" stroke-linecap="round" stroke-linejoin="round"/>
</svg>
