<svg width="40" height="40" viewBox="0 0 40 40" fill="none" xmlns="http://www.w3.org/2000/svg">
<g clip-path="url(#clip0_273_2741)">
<path d="M35.7143 4.28577L25.9714 14.0286" stroke="#FA5241" stroke-width="1.5" stroke-linecap="round" stroke-linejoin="round"/>
<path d="M4.28571 4.28577L14.0286 14.0286" stroke="#FA5241" stroke-width="1.5" stroke-linecap="round" stroke-linejoin="round"/>
<path d="M4.28571 35.7143L14.0286 25.9714" stroke="#FA5241" stroke-width="1.5" stroke-linecap="round" stroke-linejoin="round"/>
<path d="M35.7143 35.7143L25.9714 25.9714" stroke="#FA5241" stroke-width="1.5" stroke-linecap="round" stroke-linejoin="round"/>
<path d="M20 38.5714C30.2567 38.5714 38.5714 30.2567 38.5714 20C38.5714 9.7433 30.2567 1.42859 20 1.42859C9.7433 1.42859 1.42859 9.7433 1.42859 20C1.42859 30.2567 9.7433 38.5714 20 38.5714Z" stroke="#FA5241" stroke-width="1.5" stroke-linecap="round" stroke-linejoin="round"/>
<path d="M20 28.4286C24.655 28.4286 28.4286 24.655 28.4286 20C28.4286 15.345 24.655 11.5714 20 11.5714C15.345 11.5714 11.5714 15.345 11.5714 20C11.5714 24.655 15.345 28.4286 20 28.4286Z" stroke="#FA5241" stroke-width="1.5" stroke-linecap="round" stroke-linejoin="round"/>
</g>
<defs>
<clipPath id="clip0_273_2741">
<rect width="40" height="40" fill="white"/>
</clipPath>
</defs>
</svg>
