<svg width="25" height="25" viewBox="0 0 25 25" fill="none" xmlns="http://www.w3.org/2000/svg">
<path d="M16.9632 24.1073V19.6429H20.5347C21.0082 19.6429 21.4625 19.4548 21.7974 19.1199C22.1322 18.785 22.3204 18.3308 22.3204 17.8573V10.7144C22.32 8.96889 21.8546 7.25503 20.9717 5.74921C20.089 4.24339 18.8209 3.00003 17.298 2.14712C15.7751 1.29422 14.0524 0.862581 12.3073 0.896646C10.5621 0.930711 8.85754 1.42925 7.36907 2.34094C5.8806 3.25262 4.66199 4.54453 3.83867 6.08364C3.01536 7.62277 2.61711 9.35349 2.6849 11.0977C2.75269 12.8419 3.28409 14.5365 4.22438 16.007C5.16467 17.4776 6.47988 18.6709 8.03463 19.4644V24.1073" stroke="white" stroke-width="1.5" stroke-linecap="round" stroke-linejoin="round"/>
</svg>
