<svg width="40" height="40" viewBox="0 0 40 40" fill="none" xmlns="http://www.w3.org/2000/svg">
<g clip-path="url(#clip0_471_1343)">
<path d="M35.7143 4.28516L25.9714 14.028" stroke="#FA5241" stroke-width="1.5" stroke-linecap="round" stroke-linejoin="round"/>
<path d="M4.28571 4.28516L14.0286 14.028" stroke="#FA5241" stroke-width="1.5" stroke-linecap="round" stroke-linejoin="round"/>
<path d="M4.28571 35.7155L14.0286 25.9727" stroke="#FA5241" stroke-width="1.5" stroke-linecap="round" stroke-linejoin="round"/>
<path d="M35.7143 35.7155L25.9714 25.9727" stroke="#FA5241" stroke-width="1.5" stroke-linecap="round" stroke-linejoin="round"/>
<path d="M20 38.5725C30.2567 38.5725 38.5714 30.2578 38.5714 20.0011C38.5714 9.7444 30.2567 1.42969 20 1.42969C9.7433 1.42969 1.42859 9.7444 1.42859 20.0011C1.42859 30.2578 9.7433 38.5725 20 38.5725Z" stroke="#FA5241" stroke-width="1.5" stroke-linecap="round" stroke-linejoin="round"/>
<path d="M20 28.4314C24.655 28.4314 28.4286 24.6578 28.4286 20.0028C28.4286 15.3478 24.655 11.5742 20 11.5742C15.3451 11.5742 11.5715 15.3478 11.5715 20.0028C11.5715 24.6578 15.3451 28.4314 20 28.4314Z" stroke="#FA5241" stroke-width="1.5" stroke-linecap="round" stroke-linejoin="round"/>
</g>
<defs>
<clipPath id="clip0_471_1343">
<rect width="40" height="40" fill="white"/>
</clipPath>
</defs>
</svg>
