<svg width="40" height="40" viewBox="0 0 40 40" fill="none" xmlns="http://www.w3.org/2000/svg">
<path d="M20 28.6289V31.5146" stroke="#FA5241" stroke-width="1.5" stroke-linecap="round" stroke-linejoin="round"/>
<path d="M20 14.3145V17.0002" stroke="#FA5241" stroke-width="1.5" stroke-linecap="round" stroke-linejoin="round"/>
<path d="M20 38.5437C30 38.5437 37.1428 35.0009 37.1428 27.1152C37.1428 18.5437 32.8571 12.8295 24.2857 8.54375L27.6571 4.20089C27.8284 3.91595 27.9213 3.59079 27.9264 3.25838C27.9315 2.92596 27.8487 2.5981 27.6862 2.30803C27.5238 2.01796 27.2875 1.77599 27.0014 1.60665C26.7153 1.4373 26.3896 1.34661 26.0571 1.34375H13.9428C13.6104 1.34661 13.2846 1.4373 12.9985 1.60665C12.7124 1.77599 12.4762 2.01796 12.3137 2.30803C12.1513 2.5981 12.0684 2.92596 12.0735 3.25838C12.0787 3.59079 12.1716 3.91595 12.3428 4.20089L15.7143 8.57232C7.14283 12.8866 2.85712 18.6009 2.85712 27.1723C2.85712 35.0009 9.99997 38.5437 20 38.5437Z" stroke="#FA5241" stroke-width="1.5" stroke-linecap="round" stroke-linejoin="round"/>
<path d="M17.1428 27.3155C17.4915 27.7294 17.9302 28.0578 18.4255 28.2757C18.9208 28.4937 19.4594 28.5952 20 28.5727C20.8263 28.629 21.6422 28.3628 22.2763 27.8299C22.9104 27.2971 23.3132 26.5392 23.4 25.7155C23.3132 24.8919 22.9104 24.134 22.2763 23.6011C21.6422 23.0683 20.8263 22.8021 20 22.8584C19.1737 22.9147 18.3577 22.6485 17.7236 22.1157C17.0896 21.5828 16.6868 20.8249 16.6 20.0013C16.6798 19.1747 17.0807 18.4125 17.7164 17.8782C18.3521 17.344 19.172 17.0804 20 17.1441C20.5311 17.1116 21.0628 17.1973 21.5568 17.3949C22.0508 17.5925 22.4949 17.8972 22.8571 18.287" stroke="#FA5241" stroke-width="1.5" stroke-linecap="round" stroke-linejoin="round"/>
</svg>
