<svg width="40" height="40" viewBox="0 0 40 40" fill="none" xmlns="http://www.w3.org/2000/svg">
<g clip-path="url(#clip0_273_2976)">
<path d="M35.7143 4.28564L25.9714 14.0285" stroke="#FA5241" stroke-width="1.5" stroke-linecap="round" stroke-linejoin="round"/>
<path d="M4.28571 4.28564L14.0286 14.0285" stroke="#FA5241" stroke-width="1.5" stroke-linecap="round" stroke-linejoin="round"/>
<path d="M4.28571 35.7143L14.0286 25.9714" stroke="#FA5241" stroke-width="1.5" stroke-linecap="round" stroke-linejoin="round"/>
<path d="M35.7143 35.7143L25.9714 25.9714" stroke="#FA5241" stroke-width="1.5" stroke-linecap="round" stroke-linejoin="round"/>
<path d="M20 38.5713C30.2567 38.5713 38.5714 30.2566 38.5714 19.9999C38.5714 9.74318 30.2567 1.42847 20 1.42847C9.7433 1.42847 1.42859 9.74318 1.42859 19.9999C1.42859 30.2566 9.7433 38.5713 20 38.5713Z" stroke="#FA5241" stroke-width="1.5" stroke-linecap="round" stroke-linejoin="round"/>
<path d="M20 28.4284C24.655 28.4284 28.4286 24.6548 28.4286 19.9999C28.4286 15.3449 24.655 11.5713 20 11.5713C15.3451 11.5713 11.5715 15.3449 11.5715 19.9999C11.5715 24.6548 15.3451 28.4284 20 28.4284Z" stroke="#FA5241" stroke-width="1.5" stroke-linecap="round" stroke-linejoin="round"/>
</g>
<defs>
<clipPath id="clip0_273_2976">
<rect width="40" height="40" fill="white"/>
</clipPath>
</defs>
</svg>
