<svg width="25" height="25" viewBox="0 0 25 25" fill="none" xmlns="http://www.w3.org/2000/svg">
<path d="M20.5357 8.92829C20.5357 13.3747 12.4999 24.1069 12.4999 24.1069C12.4999 24.1069 4.46423 13.3747 4.46423 8.92829C4.46423 6.79709 5.31085 4.75317 6.81784 3.24618C8.32483 1.7392 10.3687 0.892578 12.4999 0.892578C14.6312 0.892578 16.6751 1.7392 18.1821 3.24618C19.689 4.75317 20.5357 6.79709 20.5357 8.92829V8.92829Z" stroke="white" stroke-width="1.5" stroke-linecap="round" stroke-linejoin="round"/>
<path d="M12.5 11.6071C13.9793 11.6071 15.1786 10.4079 15.1786 8.92857C15.1786 7.44924 13.9793 6.25 12.5 6.25C11.0206 6.25 9.82141 7.44924 9.82141 8.92857C9.82141 10.4079 11.0206 11.6071 12.5 11.6071Z" stroke="white" stroke-width="1.5" stroke-linecap="round" stroke-linejoin="round"/>
</svg>
