<svg width="40" height="40" viewBox="0 0 40 40" fill="none" xmlns="http://www.w3.org/2000/svg">
<path d="M19.6286 27.143C26.7294 27.143 32.4857 21.3867 32.4857 14.2859C32.4857 7.18505 26.7294 1.42871 19.6286 1.42871C12.5278 1.42871 6.77142 7.18505 6.77142 14.2859C6.77142 21.3867 12.5278 27.143 19.6286 27.143Z" stroke="#FA5241" stroke-width="1.5" stroke-linecap="round" stroke-linejoin="round"/>
<path d="M19.6286 20.0003C22.7845 20.0003 25.3428 17.442 25.3428 14.2861C25.3428 11.1302 22.7845 8.57178 19.6286 8.57178C16.4726 8.57178 13.9143 11.1302 13.9143 14.2861C13.9143 17.442 16.4726 20.0003 19.6286 20.0003Z" stroke="#FA5241" stroke-width="1.5" stroke-linecap="round" stroke-linejoin="round"/>
<path d="M17.1429 26.9146L14.6286 37.486C14.5788 37.6869 14.4868 37.8749 14.3587 38.0375C14.2306 38.2 14.0694 38.3335 13.8857 38.4289C13.6918 38.513 13.4828 38.5564 13.2714 38.5564C13.0601 38.5564 12.851 38.513 12.6571 38.4289L3.17142 34.286C2.97245 34.1919 2.79738 34.054 2.65933 33.8826C2.52129 33.7112 2.42387 33.5107 2.37438 33.2963C2.32489 33.0819 2.32463 32.859 2.3736 32.6444C2.42257 32.4298 2.51951 32.2292 2.65714 32.0574L9.99999 22.8574" stroke="#FA5241" stroke-width="1.5" stroke-linecap="round" stroke-linejoin="round"/>
<path d="M22.8571 26.7716L25.4286 37.4859C25.4797 37.6902 25.5754 37.8807 25.7087 38.0437C25.8421 38.2067 26.0099 38.3382 26.2 38.4287C26.3886 38.5139 26.5931 38.558 26.8 38.558C27.0069 38.558 27.2115 38.5139 27.4 38.4287L36.8286 34.2859C37.0305 34.1929 37.208 34.0541 37.3469 33.8805C37.4858 33.7069 37.5822 33.5033 37.6286 33.2859C37.6827 33.0732 37.6851 32.8506 37.6353 32.6368C37.5856 32.423 37.4853 32.2243 37.3429 32.0573L29.6857 22.3145" stroke="#FA5241" stroke-width="1.5" stroke-linecap="round" stroke-linejoin="round"/>
</svg>
