<svg width="50" height="50" viewBox="0 0 50 50" fill="none" xmlns="http://www.w3.org/2000/svg">
<circle cx="25" cy="25" r="25" fill="#FA5241"/>
<path fill-rule="evenodd" clip-rule="evenodd" d="M18.271 34.5675C21.1112 23.5348 27.9663 31.7665 29.571 38H35.8993C34.0012 32.16 27.8776 25.6459 21.529 25.1359C16.6128 24.741 13.2858 30.4359 11.9427 34.5675H18.271ZM10.0003 24.5271C12.8107 22.7928 14.1089 20.6881 14.6523 18.1373L16.6251 17.5841C20.6309 25.1926 30.4257 20.6269 33.6717 11H40C37.6644 23.6977 23.1046 27.8565 17.1572 21.7167C16.6402 24.9731 14.5724 27.2679 13.6636 28.2595L10 24.5271H10.0003ZM21.8211 11.9224C19.9994 11.9224 18.5226 13.428 18.5226 15.2853C18.5226 17.1426 19.9994 18.6483 21.8211 18.6483C23.6428 18.6483 25.1196 17.1426 25.1196 15.2853C25.1196 13.428 23.6428 11.9224 21.8211 11.9224Z" fill="white"/>
</svg>
