<svg width="201" height="50" viewBox="0 0 201 50" fill="none" xmlns="http://www.w3.org/2000/svg">
<path d="M67.728 10H72.876V37H67.728V10ZM73.092 24.904H78.24L85.224 37H79.608L73.092 24.904ZM84.756 16.84L72.372 32.464L69.816 28.108L78.708 16.84H84.756ZM87.6307 16.84H92.7787V37H87.6307V16.84ZM87.4507 10H92.9587V15.508H87.4507V10ZM115.246 28.54C115.246 30.268 114.85 31.816 114.058 33.184C113.266 34.552 112.162 35.632 110.746 36.424C109.33 37.192 107.674 37.576 105.778 37.576C103.714 37.576 101.902 37.132 100.342 36.244C98.806 35.332 97.606 34.072 96.742 32.464C95.902 30.856 95.482 29.02 95.482 26.956C95.482 24.868 95.902 23.02 96.742 21.412C97.606 19.804 98.806 18.544 100.342 17.632C101.902 16.72 103.714 16.264 105.778 16.264C107.602 16.264 109.222 16.672 110.638 17.488C112.054 18.28 113.158 19.324 113.95 20.62C114.766 21.892 115.174 23.272 115.174 24.76H109.738C109.738 24.112 109.606 23.5 109.342 22.924C109.078 22.348 108.658 21.88 108.082 21.52C107.506 21.136 106.738 20.944 105.778 20.944C104.554 20.944 103.57 21.208 102.826 21.736C102.082 22.264 101.542 22.984 101.206 23.896C100.894 24.808 100.738 25.828 100.738 26.956C100.738 28.06 100.894 29.068 101.206 29.98C101.542 30.868 102.082 31.576 102.826 32.104C103.57 32.632 104.554 32.896 105.778 32.896C106.738 32.896 107.518 32.692 108.118 32.284C108.718 31.876 109.162 31.348 109.45 30.7C109.738 30.028 109.882 29.308 109.882 28.54H115.246ZM117.861 10H123.009V37H117.861V10ZM123.225 24.904H128.373L135.357 37H129.741L123.225 24.904ZM134.889 16.84L122.505 32.464L119.949 28.108L128.841 16.84H134.889ZM148.667 37.576C147.275 37.576 146.111 37.336 145.175 36.856C144.239 36.352 143.483 35.668 142.907 34.804V19.108C143.531 18.196 144.311 17.5 145.247 17.02C146.183 16.516 147.323 16.264 148.667 16.264C150.587 16.264 152.219 16.72 153.563 17.632C154.907 18.544 155.939 19.804 156.659 21.412C157.379 23.02 157.739 24.868 157.739 26.956C157.739 29.02 157.379 30.856 156.659 32.464C155.939 34.072 154.907 35.332 153.563 36.244C152.219 37.132 150.587 37.576 148.667 37.576ZM137.759 44.2V16.84H142.907V44.2H137.759ZM147.767 32.968C148.823 32.968 149.699 32.704 150.395 32.176C151.091 31.624 151.607 30.892 151.943 29.98C152.303 29.068 152.483 28.06 152.483 26.956C152.483 25.828 152.303 24.808 151.943 23.896C151.607 22.96 151.091 22.228 150.395 21.7C149.699 21.148 148.823 20.872 147.767 20.872C146.663 20.872 145.751 21.148 145.031 21.7C144.311 22.228 143.771 22.96 143.411 23.896C143.075 24.808 142.907 25.828 142.907 26.956C142.907 28.06 143.075 29.068 143.411 29.98C143.771 30.892 144.311 31.624 145.031 32.176C145.751 32.704 146.663 32.968 147.767 32.968ZM160.363 16.84H165.511V37H160.363V16.84ZM165.511 27.136L164.971 23.428C164.971 22.804 165.031 22.084 165.151 21.268C165.271 20.452 165.547 19.672 165.979 18.928C166.435 18.16 167.131 17.524 168.067 17.02C169.003 16.516 170.275 16.264 171.883 16.264V21.304C170.467 21.304 169.279 21.46 168.319 21.772C167.383 22.084 166.675 22.66 166.195 23.5C165.739 24.316 165.511 25.528 165.511 27.136ZM182.77 37.576C180.706 37.576 178.894 37.132 177.334 36.244C175.798 35.332 174.598 34.072 173.734 32.464C172.894 30.856 172.474 29.02 172.474 26.956C172.474 24.868 172.894 23.02 173.734 21.412C174.598 19.804 175.798 18.544 177.334 17.632C178.894 16.72 180.718 16.264 182.806 16.264C184.87 16.264 186.67 16.72 188.206 17.632C189.742 18.544 190.93 19.804 191.77 21.412C192.634 23.02 193.066 24.868 193.066 26.956C193.066 29.02 192.634 30.856 191.77 32.464C190.93 34.072 189.742 35.332 188.206 36.244C186.67 37.132 184.858 37.576 182.77 37.576ZM182.806 32.968C183.958 32.968 184.894 32.704 185.614 32.176C186.358 31.624 186.91 30.892 187.27 29.98C187.63 29.068 187.81 28.06 187.81 26.956C187.81 25.828 187.63 24.808 187.27 23.896C186.91 22.96 186.358 22.228 185.614 21.7C184.894 21.148 183.958 20.872 182.806 20.872C181.63 20.872 180.67 21.148 179.926 21.7C179.182 22.228 178.63 22.96 178.27 23.896C177.91 24.808 177.73 25.828 177.73 26.956C177.73 28.06 177.91 29.068 178.27 29.98C178.63 30.892 179.182 31.624 179.926 32.176C180.67 32.704 181.63 32.968 182.806 32.968Z" fill="white"/>
<path d="M194.205 31.492H199.713V37H194.205V31.492Z" fill="#FA5241"/>
<circle cx="25" cy="25" r="25" fill="#FA5241"/>
<path fill-rule="evenodd" clip-rule="evenodd" d="M18.271 34.5675C21.1112 23.5348 27.9663 31.7665 29.571 38H35.8993C34.0012 32.16 27.8776 25.6459 21.529 25.1359C16.6128 24.741 13.2858 30.4359 11.9427 34.5675H18.271ZM10.0003 24.5271C12.8107 22.7928 14.1089 20.6881 14.6523 18.1373L16.6251 17.5841C20.6309 25.1926 30.4257 20.6269 33.6717 11H40C37.6644 23.6977 23.1046 27.8565 17.1572 21.7167C16.6402 24.9731 14.5724 27.2679 13.6636 28.2595L10 24.5271H10.0003ZM21.8211 11.9224C19.9994 11.9224 18.5226 13.428 18.5226 15.2853C18.5226 17.1426 19.9994 18.6483 21.8211 18.6483C23.6428 18.6483 25.1196 17.1426 25.1196 15.2853C25.1196 13.428 23.6428 11.9224 21.8211 11.9224Z" fill="white"/>
</svg>
