<svg width="24" height="24" viewBox="0 0 24 24" fill="none" xmlns="http://www.w3.org/2000/svg">
<g clip-path="url(#clip0_273_3244)">
<path d="M17.5001 21C20.5376 21 23 18.5376 23.0001 15.5C23.0001 13.2564 21.8321 11.0856 20.0889 10.6667C19.4165 10.5051 18.881 9.64223 18.9961 8.65716C19.1501 7.33868 20.3424 6.00661 22.7032 4.95687C23.2288 4.72314 23.0087 3.93241 22.4379 4.00387C16.2854 4.77416 12.0206 8.78523 12.0001 14.4602C12 18.363 14.3058 21 17.5001 21Z" fill="white"/>
<path d="M5.49993 21C8.53749 21 10.9999 18.5376 10.9999 15.5C10.9999 13.2564 9.83198 11.0856 8.0888 10.6667C7.4164 10.5051 6.8809 9.64223 6.99596 8.65716C7.14997 7.33868 8.34229 6.00661 10.7031 4.95687C11.2287 4.72314 11.0086 3.93241 10.4378 4.00387C4.28525 4.77416 0.0204611 8.78523 5.73497e-07 14.4602C-7.34577e-05 18.363 2.30572 21 5.49993 21Z" fill="white"/>
</g>
<defs>
<clipPath id="clip0_273_3244">
<rect width="24" height="24" fill="white" transform="matrix(1 8.74228e-08 8.74228e-08 -1 0 24)"/>
</clipPath>
</defs>
</svg>
