<svg width="100" height="100" viewBox="0 0 100 100" fill="none" xmlns="http://www.w3.org/2000/svg">
<path d="M93.8281 43.2031C90.9375 41.0742 89.9219 37.2656 91.3477 33.9648C92.4219 31.4844 92.2656 28.7109 90.918 26.3672C89.5703 24.0234 87.2461 22.5 84.5508 22.1875C80.9766 21.7773 78.2031 19.0039 77.793 15.4297C77.4805 12.7344 75.957 10.4102 73.6133 9.0625C71.2695 7.71484 68.4961 7.55859 66.0156 8.63281C62.7148 10.0781 58.9258 9.04297 56.7773 6.15234C55.1953 3.98437 52.7148 2.73438 50 2.73438C47.2852 2.73438 44.8047 3.98438 43.2031 6.17188C41.0742 9.0625 37.2656 10.0781 33.9648 8.65234C31.4844 7.57812 28.7109 7.73437 26.3672 9.08203C24.0234 10.4297 22.5 12.7344 22.1875 15.4297C21.7773 19.0039 19.0039 21.7773 15.4297 22.1875C12.7344 22.5 10.4102 24.0234 9.0625 26.3672C7.71484 28.7109 7.55859 31.4844 8.63281 33.9648C10.0781 37.2656 9.04297 41.0547 6.15234 43.2031C3.98437 44.8047 2.73438 47.2852 2.73438 50C2.73438 52.7148 3.98438 55.1953 6.17188 56.7969C9.0625 58.9258 10.0781 62.7344 8.65234 66.0352C7.57812 68.5156 7.73437 71.2891 9.08203 73.6328C10.4297 75.9766 12.7539 77.5 15.4492 77.8125C19.0234 78.2227 21.7969 80.9961 22.207 84.5703C22.5195 87.2656 24.043 89.5898 26.3867 90.9375C28.7305 92.2852 31.5039 92.4414 33.9844 91.3672C37.2852 89.9219 41.0742 90.957 43.2227 93.8477C44.8242 96.0352 47.3047 97.2852 50.0195 97.2852C52.7344 97.2852 55.2148 96.0352 56.8164 93.8477C58.9453 90.957 62.7539 89.9414 66.0547 91.3672C68.5352 92.4414 71.3086 92.2852 73.6523 90.9375C75.9961 89.5898 77.5195 87.2656 77.832 84.5703C78.2422 80.9961 81.0156 78.2227 84.5898 77.8125C87.2852 77.5 89.6094 75.9766 90.957 73.6328C92.3047 71.2891 92.4609 68.5156 91.3867 66.0352C89.9414 62.7344 90.9766 58.9453 93.8672 56.7969C96.0547 55.1953 97.3047 52.7148 97.3047 50C97.2656 47.2852 96.0156 44.8047 93.8281 43.2031Z" fill="white"/>
</svg>
