<svg width="100" height="100" viewBox="0 0 100 100" fill="none" xmlns="http://www.w3.org/2000/svg">
<path d="M96.4453 38.1836C93.9062 30.0586 85.918 24.9023 77.4609 25.9375C74.0234 26.3477 70.7227 27.3828 67.6563 28.9648C67.3633 29.1211 67.0313 28.8672 67.0898 28.5547C67.6953 25.1367 67.6953 21.6992 67.0703 18.2812C65.5273 9.90234 58.2422 3.82812 49.7266 3.82812C41.2109 3.82812 33.9063 9.90234 32.3828 18.2812C31.875 21.0742 31.7773 23.9063 32.0898 26.7188C32.1289 27.0313 31.7969 27.2461 31.5234 27.1094C28.9844 25.8203 26.2891 24.9023 23.5156 24.4141C15.1367 22.9102 6.875 27.5977 3.88672 35.5859C0.898439 43.5742 4.02344 52.5391 11.3281 56.9141C14.2969 58.7109 17.5391 59.9219 20.9375 60.5469C21.25 60.6055 21.3672 60.9961 21.1328 61.2109C18.5547 63.5352 16.4453 66.25 14.8438 69.3359C10.8984 76.8945 12.9297 86.1719 19.6484 91.4062C22.8516 93.8867 26.6602 95.1367 30.4883 95.1367C34.6875 95.1367 38.8867 93.6328 42.2266 90.6641C44.8242 88.3398 46.9336 85.6445 48.5547 82.5781C48.7109 82.2852 49.1211 82.3047 49.2578 82.5977C50.7031 85.7422 52.6758 88.5742 55.1172 91.0352C58.5352 94.4336 63.0273 96.1914 67.5781 96.1914C71.0742 96.1914 74.5703 95.1562 77.6172 93.0469C84.6094 88.2031 87.1484 79.043 83.6328 71.2891C82.207 68.125 80.2539 65.293 77.8125 62.832C77.5781 62.5977 77.7148 62.207 78.0469 62.168C81.4844 61.7383 84.7656 60.6836 87.8516 59.082C95.3516 55.0977 98.9844 46.3086 96.4453 38.1836Z" fill="white"/>
</svg>
