<svg width="180" height="180" viewBox="0 0 180 180" fill="none" xmlns="http://www.w3.org/2000/svg">
<rect width="180" height="180" rx="90" fill="#FA5241"/>
<path d="M91.3414 27.2274L91.5406 24.8235C91.5822 24.3214 91.6986 23.89 91.8898 23.5293C92.0918 23.1695 92.3863 22.8605 92.7735 22.6021C93.1615 22.333 93.6653 22.0951 94.2849 21.8883L96.2437 21.2276C96.7413 21.0645 97.1146 20.8426 97.3638 20.562C97.6236 20.2824 97.7726 19.9128 97.8106 19.4534C97.8496 18.9833 97.7372 18.5867 97.4735 18.2637C97.2099 17.9406 96.8002 17.7561 96.2447 17.71C95.6891 17.664 95.2542 17.784 94.9401 18.0699C94.626 18.3558 94.4472 18.7606 94.4038 19.2841L91.8557 19.0729C91.9168 18.3357 92.1319 17.6866 92.5011 17.1256C92.8712 16.5538 93.3856 16.1231 94.0443 15.8334C94.703 15.5438 95.4971 15.4375 96.4266 15.5145C97.3561 15.5915 98.117 15.8213 98.7092 16.2038C99.3121 16.5873 99.7508 17.07 100.025 17.6522C100.31 18.2352 100.424 18.8739 100.367 19.5684L100.351 19.7607C100.276 20.6581 99.9692 21.3803 99.429 21.9272C98.8898 22.4634 98.0887 22.9134 97.0259 23.2772L95.0831 23.9391C94.7511 24.0515 94.5094 24.1767 94.3581 24.3147C94.2175 24.4537 94.1366 24.6514 94.1154 24.9078L94.049 25.7091L93.4678 25.1284L99.8782 25.6596L99.6909 27.9193L91.3414 27.2274Z" fill="white"/>
<path d="M105.714 29.6209C104.81 29.3912 104.074 29.0218 103.507 28.5125C102.942 27.9929 102.558 27.3921 102.356 26.7101C102.163 26.0307 102.158 25.3326 102.34 24.6156L104.803 25.2413C104.713 25.5946 104.712 25.9261 104.799 26.2359C104.899 26.5379 105.075 26.8038 105.326 27.0336C105.58 27.253 105.894 27.4102 106.268 27.5052C106.684 27.6108 107.053 27.6162 107.376 27.5212C107.712 27.4185 107.994 27.2415 108.224 26.9901C108.457 26.7284 108.62 26.4105 108.715 26.0365C108.813 25.652 108.821 25.2945 108.739 24.964C108.67 24.6257 108.513 24.3313 108.267 24.0807C108.031 23.8328 107.711 23.6574 107.305 23.5544C106.931 23.4594 106.574 23.4515 106.233 23.5308C105.892 23.6101 105.618 23.7507 105.412 23.9527L103.012 23.3428L105.22 17.0681L112.125 18.8225L111.57 21.0045L105.679 19.5075L106.827 19.1024L105.546 22.7091L104.993 22.4027C105.4 22.1079 105.853 21.8912 106.353 21.7527C106.866 21.6065 107.481 21.6245 108.197 21.8066C109.029 22.0179 109.692 22.3688 110.186 22.8596C110.694 23.3426 111.031 23.9094 111.198 24.5601C111.377 25.203 111.379 25.8725 111.202 26.5687L111.15 26.7713C110.973 27.4675 110.637 28.0733 110.141 28.5888C109.645 29.1043 109.017 29.4646 108.257 29.6697C107.507 29.8774 106.66 29.8612 105.714 29.6209Z" fill="white"/>
<path d="M114.763 30.7541L118.004 23.3432L120.096 24.2582L116.855 31.6691L114.763 30.7541ZM113.354 26.8731L114.192 24.9578L121.514 28.1603L120.676 30.0757L113.354 26.8731Z" fill="white"/>
<path d="M128.712 35.0982L130.258 27.1982L132.436 28.7958L131.197 34.6469L130.906 34.2544L131.996 35.0532L131.508 34.8751L136.521 31.7913L138.583 33.3033L131.734 37.3139L128.712 35.0982ZM126.545 39.0327L129.398 35.1423L131.486 36.6733L128.633 40.5637L126.545 39.0327Z" fill="white"/>
<path d="M134.734 46.48C134.208 45.9449 133.834 45.3807 133.612 44.7876C133.397 44.202 133.307 43.6213 133.342 43.0455C133.392 42.4698 133.537 41.9214 133.776 41.4003C134.031 40.8793 134.361 40.4197 134.766 40.0213L134.995 39.7958C135.416 39.3824 135.885 39.0566 136.402 38.8183C136.935 38.5802 137.486 38.4446 138.054 38.4115C138.623 38.3783 139.191 38.4741 139.758 38.6987C140.34 38.9234 140.882 39.2919 141.386 39.804C142.047 40.4767 142.451 41.1927 142.596 41.952C142.756 42.7114 142.712 43.454 142.464 44.1797C142.223 44.8978 141.815 45.5388 141.242 46.1025L140.623 46.7114L135.155 41.1503L136.198 40.1243L140.573 44.5731L139.505 44.4505C139.879 44.0821 140.148 43.7129 140.31 43.3428C140.472 42.9727 140.517 42.613 140.444 42.2637C140.386 41.9145 140.204 41.5832 139.895 41.2698C139.58 40.9487 139.24 40.7488 138.877 40.6699C138.514 40.591 138.134 40.6333 137.739 40.7968C137.351 40.9527 136.954 41.2299 136.549 41.6283C136.175 41.9966 135.899 42.3733 135.721 42.7584C135.551 43.1361 135.502 43.5147 135.575 43.8944C135.648 44.274 135.864 44.6473 136.225 45.0142C136.556 45.3505 136.891 45.5618 137.232 45.6481C137.572 45.7343 137.876 45.7217 138.142 45.6103L139.799 47.2958C139.289 47.6175 138.737 47.8061 138.146 47.8618C137.554 47.9175 136.967 47.833 136.385 47.6082C135.803 47.3835 135.253 47.0074 134.734 46.48Z" fill="white"/>
<path d="M142.234 55.2133L144.357 53.7025L144.105 53.3488L146.41 51.7075C146.777 51.4464 146.99 51.1632 147.049 50.8579C147.108 50.5527 147.001 50.2079 146.728 49.8237C146.591 49.6315 146.406 49.3814 146.174 49.0732C145.941 48.765 145.698 48.4511 145.444 48.1317C145.19 47.8122 144.958 47.5234 144.748 47.2651L146.517 46.0061C146.677 46.1945 146.863 46.4179 147.073 46.6762C147.283 46.9345 147.495 47.2047 147.709 47.4867C147.923 47.7687 148.12 48.0363 148.3 48.2896C148.822 49.0232 149.156 49.7135 149.301 50.3606C149.452 51.0163 149.407 51.6276 149.165 52.1942C148.932 52.7546 148.484 53.2711 147.82 53.7436L143.419 56.8771L142.234 55.2133ZM140.419 53.0513C140.052 52.536 139.82 52.0166 139.724 51.493C139.634 50.9781 139.681 50.4903 139.867 50.0295C140.061 49.5625 140.398 49.158 140.878 48.816C141.402 48.443 141.926 48.2737 142.451 48.3082C142.984 48.3365 143.504 48.5392 144.009 48.9164C144.523 49.2874 145.007 49.7916 145.461 50.4292L146.552 51.9619L145.386 52.7919L144.286 51.2461C144.025 50.8793 143.731 50.6607 143.404 50.5904C143.093 50.5226 142.784 50.5975 142.479 50.8151C142.19 51.0202 142.023 51.2842 141.976 51.6069C141.945 51.9321 142.059 52.2781 142.321 52.6449C142.488 52.8808 142.677 53.0624 142.886 53.1898C143.11 53.3198 143.366 53.3744 143.654 53.3537C143.942 53.333 144.271 53.2039 144.642 52.9665L144.472 53.8373C143.943 54.148 143.437 54.3242 142.953 54.3658C142.476 54.4161 142.021 54.3319 141.589 54.1131C141.163 53.903 140.773 53.5491 140.419 53.0513Z" fill="white"/>
<path d="M144.489 58.8363L152.277 54.7138L153.233 56.5188L149.893 58.2867L149.87 58.244C150.969 57.6623 151.94 57.4456 152.783 57.5939C153.631 57.7517 154.29 58.2759 154.762 59.1666L154.92 59.4651L152.958 60.5032L152.657 59.9347C152.326 59.3093 151.9 58.9164 151.378 58.7558C150.866 58.5902 150.293 58.6755 149.658 59.0115L145.693 61.1104L144.489 58.8363Z" fill="white"/>
<path d="M148.558 68.2392C148.117 67.065 148.013 66.0562 148.245 65.2129C148.478 64.3695 149.024 63.7638 149.882 63.3956L150.685 65.5332C150.439 65.6714 150.262 65.9155 150.153 66.2657C150.058 66.6221 150.114 67.0763 150.321 67.6282C150.479 68.0497 150.68 68.3696 150.922 68.5877C151.178 68.8122 151.442 68.8735 151.713 68.7717C151.954 68.6812 152.105 68.5042 152.166 68.2406C152.237 67.9733 152.201 67.5574 152.058 66.9928L151.875 66.3229C151.602 65.2917 151.597 64.4403 151.86 63.7689C152.127 63.1075 152.612 62.6448 153.314 62.3808C153.896 62.1621 154.438 62.1248 154.938 62.2688C155.439 62.4127 155.886 62.7029 156.279 63.1393C156.676 63.5858 156.999 64.1402 157.247 64.8025C157.647 65.8663 157.734 66.813 157.507 67.6425C157.291 68.4683 156.746 69.0621 155.875 69.424L155.071 67.2864C155.327 67.1445 155.5 66.9191 155.59 66.6104C155.691 66.2979 155.652 65.9058 155.475 65.4342C155.335 65.0628 155.154 64.7932 154.93 64.6252C154.707 64.4572 154.475 64.4184 154.234 64.5089C154.003 64.5957 153.863 64.757 153.815 64.9929C153.766 65.2288 153.797 65.572 153.909 66.0224L154.092 66.6923C154.363 67.7474 154.378 68.6408 154.137 69.3724C153.897 70.1041 153.395 70.6132 152.633 70.8998C152.081 71.1072 151.542 71.1376 151.018 70.9912C150.503 70.8409 150.032 70.5313 149.604 70.0623C149.186 69.5895 148.837 68.9818 148.558 68.2392Z" fill="white"/>
<path d="M151.556 77.3766L163.172 75.6802L163.544 78.2261L151.928 79.9225L151.556 77.3766ZM151.881 79.6043L154.045 79.2882L154.787 84.3642L152.623 84.6802L151.881 79.6043ZM156.703 78.9001L158.867 78.5841L159.555 83.2941L157.391 83.6101L156.703 78.9001ZM161.333 78.2239L163.497 77.9079L164.222 82.8725L162.058 83.1885L161.333 78.2239Z" fill="white"/>
<path d="M152.764 86.3003L157.465 89.0811L157.063 89.0127L161.575 86.4847L161.547 89.2665L158.541 90.8286L158.538 91.0859L161.514 92.6112L161.488 95.2323L156.994 92.7269L157.331 92.7946L152.671 95.6428L152.699 92.8449L155.918 90.9794L155.92 90.7221L152.738 88.9053L152.764 86.3003Z" fill="white"/>
<path d="M149.349 96.1851L161.19 98.2985L160.831 100.309L157.079 99.6394L157.143 99.3731C158.001 99.5698 158.697 99.8792 159.232 100.301C159.777 100.725 160.149 101.233 160.349 101.824C160.559 102.417 160.603 103.051 160.483 103.726C160.375 104.328 160.168 104.852 159.859 105.297C159.549 105.754 159.162 106.121 158.699 106.397C158.245 106.686 157.732 106.873 157.162 106.956C156.6 107.052 156.003 107.043 155.37 106.93L155.006 106.865C154.383 106.754 153.813 106.56 153.296 106.282C152.79 106.007 152.368 105.659 152.029 105.239C151.688 104.83 151.446 104.357 151.302 103.819C151.167 103.294 151.156 102.715 151.269 102.082C151.386 101.427 151.623 100.86 151.981 100.379C152.348 99.9112 152.834 99.5678 153.439 99.3491C154.055 99.1323 154.793 99.0844 155.654 99.2053L154.58 99.7323L148.897 98.718L149.349 96.1851ZM153.518 101.748C153.44 102.181 153.479 102.574 153.634 102.928C153.786 103.293 154.037 103.599 154.385 103.847C154.732 104.094 155.154 104.262 155.65 104.35C156.147 104.439 156.595 104.426 156.997 104.313C157.398 104.199 157.727 104.002 157.984 103.721C158.252 103.442 158.425 103.081 158.504 102.638C158.572 102.258 158.546 101.883 158.427 101.514C158.308 101.144 158.099 100.823 157.799 100.552C157.507 100.293 157.124 100.121 156.649 100.036L156.063 99.9318C155.61 99.8508 155.2 99.8866 154.835 100.039C154.479 100.204 154.187 100.441 153.957 100.748C153.728 101.056 153.582 101.389 153.518 101.748Z" fill="white"/>
<path d="M148.51 111.744C148.768 111.04 149.119 110.46 149.56 110.006C149.997 109.561 150.484 109.232 151.02 109.018C151.562 108.817 152.119 108.714 152.693 108.707C153.272 108.715 153.829 108.817 154.362 109.013L154.664 109.124C155.218 109.327 155.713 109.612 156.149 109.978C156.592 110.358 156.95 110.798 157.223 111.298C157.496 111.798 157.652 112.352 157.691 112.961C157.737 113.583 157.635 114.231 157.388 114.905C157.062 115.79 156.587 116.461 155.963 116.917C155.345 117.386 154.654 117.664 153.892 117.749C153.14 117.838 152.386 117.744 151.632 117.466L150.817 117.167L153.507 109.846L154.881 110.351L152.728 116.208L152.383 115.19C152.876 115.371 153.324 115.456 153.728 115.444C154.132 115.433 154.477 115.32 154.761 115.105C155.052 114.903 155.274 114.596 155.425 114.184C155.581 113.761 155.616 113.369 155.533 113.007C155.449 112.645 155.248 112.32 154.931 112.032C154.625 111.748 154.205 111.508 153.671 111.312C153.178 111.13 152.72 111.042 152.296 111.046C151.882 111.053 151.519 111.171 151.206 111.399C150.894 111.627 150.649 111.982 150.472 112.465C150.309 112.908 150.261 113.302 150.329 113.647C150.396 113.991 150.537 114.26 150.752 114.453L149.936 116.672C149.427 116.348 149.021 115.93 148.718 115.419C148.415 114.908 148.24 114.341 148.195 113.719C148.149 113.097 148.254 112.439 148.51 111.744Z" fill="white"/>
<path d="M146.391 117.53L154.166 121.677L153.205 123.479L149.871 121.701L149.894 121.658C150.991 122.243 151.714 122.927 152.063 123.708C152.406 124.499 152.341 125.339 151.867 126.228L151.708 126.526L149.75 125.482L150.053 124.914C150.385 124.29 150.472 123.717 150.314 123.194C150.164 122.677 149.772 122.25 149.139 121.912L145.18 119.801L146.391 117.53Z" fill="white"/>
<path d="M142.8 123.829L150.142 128.703L148.719 130.847L141.377 125.973L142.8 123.829ZM149.21 126.675L150.791 127.725L148.719 130.847L147.138 129.797L149.21 126.675ZM150.314 130.014C150.581 129.612 150.882 129.381 151.218 129.321C151.557 129.275 151.887 129.36 152.209 129.573C152.539 129.792 152.745 130.064 152.826 130.388C152.91 130.727 152.818 131.097 152.551 131.499C152.284 131.901 151.982 132.125 151.643 132.17C151.307 132.23 150.974 132.15 150.643 131.931C150.322 131.718 150.119 131.441 150.035 131.103C149.954 130.779 150.047 130.416 150.314 130.014Z" fill="white"/>
<path d="M137.231 130.748C137.719 130.178 138.25 129.757 138.822 129.485C139.387 129.222 139.958 129.083 140.535 129.069C141.113 129.07 141.672 129.168 142.211 129.363C142.752 129.572 143.238 129.862 143.669 130.232L143.913 130.441C144.361 130.825 144.725 131.265 145.006 131.76C145.288 132.271 145.47 132.808 145.551 133.372C145.633 133.936 145.585 134.51 145.41 135.094C145.235 135.692 144.914 136.264 144.446 136.81C143.832 137.526 143.153 137.988 142.408 138.197C141.665 138.421 140.922 138.44 140.177 138.254C139.441 138.075 138.768 137.723 138.158 137.2L137.499 136.634L142.577 130.715L143.688 131.667L139.625 136.403L139.657 135.329C140.056 135.671 140.446 135.907 140.829 136.037C141.211 136.168 141.574 136.182 141.915 136.08C142.259 135.993 142.573 135.782 142.859 135.449C143.153 135.107 143.323 134.752 143.371 134.383C143.419 134.014 143.344 133.64 143.148 133.26C142.96 132.886 142.65 132.515 142.219 132.145C141.82 131.803 141.421 131.56 141.022 131.415C140.632 131.278 140.25 131.261 139.878 131.366C139.506 131.47 139.153 131.718 138.817 132.109C138.51 132.467 138.328 132.819 138.271 133.165C138.214 133.512 138.252 133.813 138.386 134.069L136.847 135.863C136.483 135.382 136.248 134.848 136.143 134.263C136.037 133.679 136.072 133.087 136.246 132.488C136.421 131.889 136.749 131.309 137.231 130.748Z" fill="white"/>
<path d="M133.232 135.55L138.876 142.318L137.307 143.626L134.887 140.724L134.998 140.631C135.575 141.323 135.969 141.971 136.181 142.577C136.384 143.189 136.401 143.761 136.231 144.294C136.061 144.826 135.716 145.309 135.198 145.742L135.111 145.814C134.321 146.473 133.503 146.715 132.659 146.539C131.813 146.379 130.955 145.776 130.083 144.73L126.859 140.865L128.835 139.217L132.151 143.194C132.454 143.556 132.808 143.763 133.214 143.815C133.62 143.867 134.005 143.742 134.367 143.44C134.737 143.131 134.938 142.761 134.97 142.33C135 141.914 134.857 141.517 134.541 141.138L131.256 137.198L133.232 135.55Z" fill="white"/>
<path d="M121.262 143.957C121.919 143.573 122.555 143.344 123.17 143.271C123.781 143.212 124.357 143.273 124.897 143.454C125.438 143.635 125.922 143.911 126.349 144.282C126.782 144.662 127.145 145.102 127.437 145.602L127.591 145.866C127.894 146.384 128.1 146.928 128.209 147.498C128.323 148.076 128.327 148.645 128.219 149.205C128.111 149.764 127.879 150.291 127.522 150.785C127.156 151.285 126.658 151.718 126.028 152.086C125.343 152.486 124.658 152.706 123.974 152.746C123.295 152.795 122.66 152.675 122.07 152.387C121.479 152.098 120.987 151.66 120.593 151.07L122.773 149.797C123.01 150.118 123.317 150.324 123.693 150.415C124.065 150.52 124.473 150.443 124.917 150.184C125.287 149.967 125.543 149.694 125.685 149.362C125.818 149.037 125.85 148.677 125.781 148.282C125.712 147.888 125.548 147.469 125.288 147.024C125.05 146.617 124.778 146.279 124.473 146.011C124.172 145.752 123.848 145.6 123.499 145.555C123.146 145.525 122.771 145.627 122.373 145.859C122.077 146.032 121.856 146.229 121.712 146.45C121.564 146.685 121.484 146.931 121.472 147.186C121.456 147.456 121.507 147.724 121.625 147.991L119.459 149.256C119.119 148.61 118.97 147.952 119.013 147.281C119.062 146.62 119.276 145.998 119.656 145.416C120.041 144.843 120.577 144.357 121.262 143.957Z" fill="white"/>
<path d="M112.045 148.322C112.746 148.054 113.413 147.937 114.046 147.971C114.668 148.009 115.237 148.159 115.75 148.422C116.257 148.699 116.702 149.052 117.083 149.48C117.458 149.922 117.747 150.408 117.95 150.939L118.065 151.24C118.275 151.79 118.385 152.351 118.396 152.92C118.401 153.504 118.305 154.063 118.107 154.597C117.909 155.131 117.594 155.613 117.161 156.042C116.722 156.485 116.167 156.835 115.496 157.091C114.614 157.428 113.797 157.51 113.043 157.339C112.283 157.181 111.62 156.843 111.055 156.325C110.494 155.816 110.07 155.186 109.783 154.435L109.473 153.624L116.76 150.842L117.282 152.21L111.452 154.435L111.993 153.505C112.18 153.996 112.411 154.39 112.685 154.687C112.959 154.984 113.271 155.169 113.62 155.243C113.963 155.33 114.34 155.295 114.75 155.138C115.171 154.977 115.49 154.747 115.708 154.445C115.926 154.144 116.039 153.78 116.048 153.352C116.061 152.934 115.966 152.46 115.763 151.929C115.576 151.438 115.341 151.034 115.06 150.717C114.782 150.41 114.454 150.214 114.077 150.128C113.7 150.042 113.272 150.091 112.791 150.275C112.35 150.443 112.022 150.666 111.807 150.943C111.591 151.22 111.481 151.503 111.477 151.792L109.268 152.635C109.178 152.038 109.226 151.458 109.412 150.893C109.598 150.329 109.911 149.825 110.35 149.382C110.789 148.939 111.354 148.585 112.045 148.322Z" fill="white"/>
<path d="M97.0218 158.161L99.6975 159.576L99.9612 161.39L97.7992 163.508L96.5991 161.96L98.4249 160.882L98.3694 160.5L96.3146 160.003L97.0218 158.161ZM100.271 164.53L100.157 161.508L101.601 160.372L104.514 161.183L103.768 162.982L101.928 161.949L101.621 162.189L102.208 164.216L100.271 164.53ZM104.123 158.494L101.561 160.101L99.854 159.423L99.1031 156.494L101.047 156.227L101.061 158.338L101.423 158.48L102.877 156.969L104.123 158.494Z" fill="white"/>
<path d="M89.3246 152.726L89.1437 155.131C89.1059 155.634 88.9928 156.066 88.8043 156.428C88.6051 156.789 88.3129 157.101 87.9278 157.362C87.5418 157.634 87.0398 157.876 86.4218 158.087L84.4681 158.763C83.9718 158.93 83.6001 159.155 83.3531 159.437C83.0954 159.719 82.9493 160.089 82.9147 160.549C82.8793 161.019 82.9947 161.415 83.2608 161.736C83.527 162.057 83.938 162.239 84.4939 162.28C85.0498 162.322 85.4837 162.199 85.7957 161.911C86.1076 161.622 86.2833 161.216 86.3227 160.692L88.8724 160.884C88.8169 161.622 88.6067 162.273 88.2418 162.836C87.876 163.411 87.3649 163.846 86.7085 164.14C86.052 164.435 85.2587 164.547 84.3287 164.477C83.3986 164.407 82.636 164.183 82.0409 163.805C81.4351 163.427 80.9927 162.947 80.7138 162.367C80.4242 161.786 80.3055 161.148 80.3578 160.454L80.3723 160.261C80.4398 159.363 80.7416 158.639 81.2775 158.088C81.8127 157.547 82.6103 157.091 83.6704 156.719L85.608 156.043C85.9392 155.928 86.1799 155.801 86.3301 155.662C86.4697 155.522 86.5491 155.323 86.5684 155.067L86.6287 154.265L87.2143 154.841L80.8 154.359L80.97 152.098L89.3246 152.726Z" fill="white"/>
<path d="M74.9351 150.442C75.8408 150.665 76.5794 151.028 77.1508 151.533C77.7196 152.049 78.108 152.646 78.3161 153.327C78.5137 154.005 78.5242 154.703 78.3476 155.421L75.8803 154.814C75.9674 154.46 75.9661 154.129 75.8765 153.82C75.7739 153.519 75.5961 153.254 75.343 153.026C75.0873 152.809 74.7721 152.654 74.3973 152.562C73.9809 152.46 73.6116 152.457 73.2896 152.555C72.9546 152.66 72.6732 152.839 72.4453 153.092C72.2149 153.356 72.0537 153.675 71.9615 154.05C71.8668 154.435 71.8617 154.792 71.9462 155.122C72.0177 155.46 72.1774 155.753 72.4254 156.002C72.663 156.248 72.9848 156.421 73.3908 156.521C73.7656 156.613 74.1231 156.618 74.4634 156.536C74.8037 156.454 75.0762 156.311 75.2808 156.108L77.6856 156.699L75.5259 162.991L68.6081 161.29L69.1457 159.104L75.0484 160.555L73.9034 160.969L75.1569 157.352L75.7119 157.654C75.3075 157.952 74.8559 158.173 74.3572 158.315C73.8456 158.465 73.2306 158.452 72.5123 158.275C71.6794 158.071 71.0137 157.725 70.5152 157.238C70.0037 156.759 69.6622 156.195 69.4907 155.545C69.3062 154.904 69.2997 154.234 69.4712 153.537L69.5211 153.334C69.6926 152.636 70.0244 152.028 70.5164 151.508C71.0084 150.989 71.6336 150.624 72.392 150.413C73.1401 150.199 73.9877 150.209 74.9351 150.442Z" fill="white"/>
<path d="M65.8779 149.379L62.694 156.815L60.5948 155.916L63.7787 148.48L65.8779 149.379ZM67.3171 153.249L66.4942 155.171L59.1472 152.025L59.9701 150.103L67.3171 153.249Z" fill="white"/>
<path d="M51.8917 145.141L50.4062 153.052L48.2155 151.471L49.4106 145.611L49.7041 146.001L48.6087 145.211L49.0976 145.385L44.108 148.507L42.0346 147.011L48.8534 142.948L51.8917 145.141ZM54.029 141.19L51.2058 145.102L49.1064 143.587L51.9296 139.675L54.029 141.19Z" fill="white"/>
<path d="M45.7844 133.805C46.3146 134.336 46.6931 134.897 46.9201 135.489C47.1394 136.073 47.2337 136.653 47.2029 137.229C47.1569 137.805 47.0162 138.354 46.7808 138.877C46.5302 139.4 46.2039 139.862 45.8018 140.264L45.5742 140.491C45.1569 140.907 44.6904 141.237 44.1747 141.479C43.6439 141.721 43.0942 141.861 42.5256 141.898C41.957 141.936 41.3885 141.844 40.8202 141.624C40.2366 141.404 39.6911 141.039 39.1837 140.531C38.5171 139.863 38.1083 139.15 37.9574 138.392C37.7912 137.634 37.8297 136.891 38.0729 136.164C38.3085 135.444 38.7108 134.8 39.2798 134.232L39.8944 133.618L45.4047 139.137L44.3691 140.171L39.9608 135.756L41.0296 135.87C40.6578 136.242 40.3922 136.613 40.2327 136.984C40.0732 137.355 40.0312 137.715 40.1067 138.064C40.1671 138.413 40.3525 138.743 40.6631 139.054C40.9812 139.373 41.3222 139.57 41.686 139.646C42.0498 139.722 42.4289 139.677 42.8232 139.511C43.2099 139.352 43.6044 139.072 44.0065 138.67C44.3782 138.299 44.6514 137.92 44.8261 137.534C44.9932 137.155 45.039 136.776 44.9635 136.397C44.888 136.018 44.6685 135.646 44.3049 135.282C43.9716 134.948 43.6345 134.739 43.2934 134.656C42.9524 134.572 42.6491 134.587 42.3837 134.7L40.7136 133.027C41.2217 132.702 41.7715 132.509 42.3628 132.449C42.9542 132.389 43.5416 132.469 44.1251 132.689C44.7087 132.909 45.2617 133.281 45.7844 133.805Z" fill="white"/>
<path d="M38.2182 125.129L36.1074 126.656L36.3619 127.008L34.0688 128.667C33.704 128.93 33.4932 129.215 33.4364 129.521C33.3797 129.827 33.4896 130.171 33.7661 130.553C33.9043 130.744 34.0909 130.993 34.3258 131.299C34.5607 131.605 34.8062 131.917 35.0623 132.235C35.3185 132.552 35.5526 132.839 35.7648 133.096L34.0058 134.369C33.844 134.181 33.6569 133.959 33.4448 133.703C33.2326 133.446 33.0185 133.177 32.8025 132.897C32.5864 132.617 32.3873 132.351 32.2051 132.099C31.6772 131.369 31.3385 130.681 31.1888 130.035C31.0328 129.381 31.0734 128.769 31.3105 128.201C31.5389 127.639 31.9832 127.119 32.6433 126.641L37.0211 123.474L38.2182 125.129ZM40.05 127.277C40.4207 127.79 40.6563 128.307 40.7566 128.83C40.8507 129.344 40.8069 129.832 40.6252 130.295C40.4349 130.763 40.1008 131.17 39.6231 131.516C39.1019 131.893 38.5789 132.066 38.054 132.036C37.5205 132.011 36.9996 131.813 36.4914 131.439C35.9745 131.072 35.4866 130.572 35.0279 129.938L33.9252 128.413L35.0848 127.574L36.197 129.112C36.4609 129.477 36.7563 129.693 37.0832 129.761C37.3952 129.826 37.7032 129.749 38.0072 129.529C38.2938 129.322 38.4592 129.056 38.5034 128.733C38.5326 128.408 38.4153 128.063 38.1513 127.698C37.9817 127.463 37.7918 127.283 37.5817 127.157C37.3566 127.029 37.1001 126.976 36.8124 126.999C36.5246 127.022 36.1964 127.154 35.8277 127.394L35.9907 126.522C36.5172 126.207 37.0222 126.027 37.5054 125.982C37.9824 125.928 38.4378 126.009 38.8716 126.224C39.299 126.431 39.6918 126.782 40.05 127.277Z" fill="white"/>
<path d="M35.936 121.523L28.1792 125.705L27.21 123.908L30.5364 122.114L30.5593 122.157C29.4646 122.747 28.4954 122.971 27.6516 122.829C26.8027 122.678 26.1392 122.159 25.6609 121.272L25.5007 120.974L27.4541 119.921L27.7593 120.488C28.0951 121.11 28.5244 121.5 29.0473 121.657C29.5607 121.818 30.1335 121.729 30.7658 121.388L34.715 119.259L35.936 121.523Z" fill="white"/>
<path d="M31.7939 112.149C32.244 113.319 32.3559 114.327 32.1295 115.172C31.9031 116.017 31.3623 116.627 30.5071 117.002L29.6877 114.871C29.9325 114.731 30.108 114.485 30.2143 114.134C30.3067 113.777 30.2471 113.323 30.0355 112.773C29.8739 112.353 29.6711 112.034 29.4272 111.818C29.1693 111.596 28.9053 111.536 28.6352 111.64C28.395 111.732 28.2453 111.911 28.186 112.175C28.1167 112.442 28.1559 112.858 28.3036 113.422L28.4917 114.09C28.7725 115.119 28.7839 115.97 28.526 116.644C28.2642 117.307 27.7831 117.774 27.0826 118.043C26.5022 118.266 25.9611 118.308 25.4593 118.167C24.9575 118.027 24.5084 117.741 24.1121 117.307C23.7119 116.864 23.3848 116.312 23.1309 115.651C22.7231 114.591 22.6294 113.645 22.8496 112.814C23.0598 111.986 23.5995 111.388 24.4685 111.02L25.2879 113.151C25.0332 113.295 24.8619 113.522 24.7741 113.831C24.6763 114.144 24.7178 114.536 24.8986 115.006C25.041 115.377 25.2245 115.645 25.4492 115.811C25.674 115.977 25.9064 116.014 26.1466 115.922C26.3767 115.834 26.5153 115.671 26.5623 115.435C26.6092 115.199 26.575 114.856 26.4596 114.406L26.2715 113.738C25.993 112.685 25.9712 111.791 26.2061 111.058C26.4409 110.324 26.9386 109.811 27.6991 109.519C28.2495 109.308 28.7875 109.273 29.3132 109.415C29.8289 109.562 30.3026 109.868 30.7343 110.333C31.156 110.803 31.5092 111.408 31.7939 112.149Z" fill="white"/>
<path d="M28.7257 103.033L17.123 104.817L16.732 102.274L28.3347 100.49L28.7257 103.033ZM28.3835 100.808L26.2219 101.14L25.4422 96.0701L27.6038 95.7377L28.3835 100.808ZM23.5676 101.549L21.406 101.881L20.6825 97.1763L22.8441 96.8439L23.5676 101.549ZM18.9424 102.26L16.7809 102.592L16.0183 97.6333L18.1798 97.3008L18.9424 102.26Z" fill="white"/>
<path d="M27.451 94.1321L22.7297 91.3872L23.1315 91.4525L18.6389 94.0148L18.6455 91.2328L21.6402 89.6479L21.6409 89.3906L18.6533 87.888L18.6595 85.2668L23.1724 87.7379L22.8349 87.6727L27.473 84.7891L27.4664 87.5872L24.2618 89.4772L24.2612 89.7345L27.4571 91.527L27.451 94.1321Z" fill="white"/>
<path d="M30.7923 84.2068L18.9353 82.1829L19.2789 80.1698L23.0357 80.811L22.9739 81.0778C22.1146 80.8876 21.416 80.5835 20.8784 80.1655C20.3301 79.7456 19.954 79.241 19.7501 78.6515C19.5357 78.0602 19.4862 77.4264 19.6016 76.7501C19.7044 76.1477 19.9083 75.6224 20.2132 75.1742C20.5199 74.7154 20.9038 74.3459 21.3649 74.0657C21.8172 73.7731 22.3282 73.583 22.8978 73.4954C23.4587 73.3953 24.0561 73.3994 24.6902 73.5077L25.0548 73.5699C25.6783 73.6763 26.2495 73.8663 26.7683 74.1397C27.2766 74.4114 27.7018 74.7558 28.0438 75.1731C28.3877 75.5798 28.6335 76.0514 28.7812 76.5877C28.9201 77.1117 28.9355 77.6908 28.8273 78.3248C28.7154 78.98 28.4823 79.5493 28.1279 80.0326C27.7648 80.5035 27.2814 80.8506 26.6777 81.0738C26.0635 81.2952 25.3257 81.3487 24.4643 81.2343L25.5345 80.6992L31.2252 81.6706L30.7923 84.2068ZM26.5814 78.6756C26.6553 78.2423 26.6137 77.8491 26.4565 77.496C26.301 77.1323 26.0484 76.8282 25.6986 76.5836C25.3489 76.339 24.9256 76.1743 24.429 76.0895C23.9323 76.0048 23.4837 76.0206 23.0831 76.1372C22.6826 76.2537 22.3549 76.4533 22.1 76.7361C21.8345 77.017 21.6639 77.3794 21.5881 77.8233C21.5232 78.2037 21.5517 78.5784 21.6736 78.9472C21.7955 79.316 22.0075 79.635 22.3096 79.9041C22.603 80.1608 22.9874 80.3297 23.4629 80.4109L24.0495 80.511C24.5039 80.5886 24.9129 80.5496 25.2766 80.3942C25.6315 80.2264 25.9224 79.9878 26.1492 79.6785C26.376 79.3692 26.5201 79.0349 26.5814 78.6756Z" fill="white"/>
<path d="M31.5114 68.6453C31.2579 69.3517 30.9123 69.9338 30.4745 70.3917C30.0404 70.8396 29.5564 71.1727 29.0224 71.3911C28.4819 71.5958 27.925 71.7034 27.3517 71.7141C26.7719 71.711 26.2146 71.6134 25.6798 71.4215L25.3771 71.3128C24.8221 71.1136 24.325 70.8327 23.8857 70.47C23.4399 70.0935 23.0785 69.6563 22.8017 69.1583C22.5248 68.6602 22.3645 68.1072 22.3208 67.4992C22.2706 66.8775 22.3668 66.2286 22.6095 65.5526C22.9282 64.6646 23.398 63.9904 24.0189 63.5299C24.6334 63.0556 25.3214 62.7729 26.0831 62.6818C26.8347 62.5871 27.5889 62.6756 28.3457 62.9472L29.163 63.2406L26.5281 70.5813L25.1508 70.0869L27.2587 64.2143L27.6119 65.2295C27.1174 65.0521 26.6683 64.9706 26.2644 64.9851C25.8606 64.9996 25.5171 65.1155 25.2341 65.3329C24.9446 65.5365 24.7256 65.8451 24.5771 66.2588C24.425 66.6826 24.3922 67.0752 24.4789 67.4367C24.5656 67.7981 24.7685 68.1215 25.0875 68.4069C25.3964 68.6886 25.8183 68.9255 26.353 69.1174C26.8475 69.2949 27.3067 69.38 27.7308 69.3727C28.1447 69.3618 28.5069 69.2413 28.8174 69.011C29.1278 68.7807 29.37 68.4234 29.5438 67.9391C29.7032 67.4951 29.7478 67.1011 29.6777 66.757C29.6076 66.4129 29.4645 66.1451 29.2484 65.9537L30.047 63.7287C30.5585 64.049 30.9679 64.4636 31.275 64.9725C31.5821 65.4814 31.7608 66.0467 31.811 66.6684C31.8612 67.2901 31.7614 67.9491 31.5114 68.6453Z" fill="white"/>
<path d="M33.5866 62.8459L25.7794 58.7588L26.7266 56.9494L30.0746 58.7021L30.0522 58.7449C28.9505 58.1681 28.2222 57.4904 27.8675 56.7117C27.5178 55.9236 27.5766 55.0831 28.044 54.1903L28.2006 53.8911L30.1666 54.9204L29.8683 55.4903C29.5401 56.1171 29.4575 56.691 29.6205 57.2119C29.7739 57.7279 30.1688 58.1524 30.8051 58.4856L34.78 60.5664L33.5866 62.8459Z" fill="white"/>
<path d="M37.129 56.5173L29.7503 51.6993L31.157 49.545L38.5357 54.3629L37.129 56.5173ZM30.6974 53.7197L29.1085 52.6823L31.157 49.545L32.7459 50.5824L30.6974 53.7197ZM29.5683 50.3898C29.3046 50.7937 29.005 51.027 28.6696 51.0897C28.3311 51.1375 28.0002 51.0559 27.6771 50.8449C27.3449 50.6281 27.1372 50.358 27.0538 50.0347C26.9673 49.6965 27.056 49.3255 27.3197 48.9215C27.5835 48.5176 27.8846 48.2917 28.2231 48.2438C28.5585 48.1812 28.8923 48.2583 29.2244 48.4751C29.5476 48.6861 29.7524 48.9607 29.8389 49.2989C29.9223 49.6222 29.8321 49.9858 29.5683 50.3898Z" fill="white"/>
<path d="M42.6446 49.5583C42.1603 50.1316 41.6331 50.5564 41.063 50.8326C40.4998 51.1006 39.9298 51.2437 39.3532 51.2618C38.7753 51.2648 38.2159 51.1711 37.6749 50.9808C37.1327 50.7754 36.6446 50.4894 36.2105 50.1228L35.9648 49.9152C35.5144 49.5347 35.1467 49.0978 34.8617 48.6045C34.5755 48.0961 34.3897 47.5602 34.3042 46.9968C34.2187 46.4335 34.2617 45.8593 34.4331 45.2743C34.6032 44.6742 34.92 44.0998 35.3835 43.5511C35.9923 42.8304 36.668 42.3627 37.4107 42.148C38.1521 41.9183 38.8955 41.8937 39.6411 42.0744C40.3784 42.2482 41.0542 42.5945 41.6684 43.1133L42.3318 43.6737L37.2989 49.6317L36.181 48.6874L40.2073 43.921L40.1836 44.9956C39.7823 44.6566 39.39 44.4234 39.0065 44.2959C38.623 44.1685 38.2607 44.1571 37.9195 44.2619C37.5771 44.3516 37.2641 44.5643 36.9805 44.9001C36.6899 45.2441 36.5221 45.6005 36.4771 45.9695C36.4321 46.3384 36.5092 46.7123 36.7085 47.0911C36.8995 47.463 37.2121 47.8323 37.6462 48.1989C38.0475 48.5379 38.448 48.7781 38.8479 48.9194C39.2396 49.0538 39.6211 49.0673 39.9925 48.96C40.3638 48.8526 40.7155 48.6024 41.0476 48.2093C41.3519 47.849 41.5314 47.4953 41.5859 47.1484C41.6403 46.8015 41.5998 46.5006 41.4642 46.2457L42.9897 44.4399C43.3571 44.9187 43.5958 45.4501 43.7058 46.0342C43.8159 46.6183 43.7858 47.2105 43.6157 47.8105C43.4456 48.4106 43.1219 48.9932 42.6446 49.5583Z" fill="white"/>
<path d="M46.606 44.7255L40.911 38.0006L42.4696 36.6808L44.9117 39.5647L44.8013 39.6582C44.2193 38.971 43.8203 38.3255 43.6041 37.7219C43.3961 37.1113 43.3751 36.5391 43.5411 36.0052C43.7071 35.4713 44.0478 34.9861 44.5632 34.5496L44.6491 34.4768C45.4345 33.8117 46.2499 33.5637 47.0955 33.7327C47.9423 33.8866 48.8056 34.483 49.6855 35.5221L52.9383 39.3631L50.9748 41.0259L47.6285 37.0744C47.3236 36.7144 46.9678 36.5099 46.5611 36.461C46.1544 36.4121 45.7711 36.54 45.4111 36.8449C45.043 37.1566 44.8448 37.5281 44.8167 37.9594C44.7898 38.3755 44.9357 38.7717 45.2544 39.1481L48.5695 43.0628L46.606 44.7255Z" fill="white"/>
<path d="M58.5151 36.2277C57.8608 36.6166 57.2264 36.8502 56.612 36.9285C56.0013 36.9921 55.4251 36.9354 54.8835 36.7585C54.3419 36.5816 53.8558 36.3092 53.4253 35.9416C52.9893 35.5647 52.6234 35.1274 52.3276 34.6297L52.1715 34.3671C51.8648 33.851 51.6547 33.3086 51.5413 32.74C51.4224 32.1622 51.4146 31.5931 51.5181 31.0328C51.6216 30.4725 51.85 29.9439 52.2032 29.4471C52.5657 28.9449 53.0603 28.5075 53.6869 28.1351C54.3689 27.7298 55.052 27.5047 55.7361 27.4597C56.4148 27.4056 57.0505 27.5204 57.6431 27.8042C58.2358 28.088 58.7313 28.5231 59.1297 29.1094L56.9593 30.3993C56.7198 30.0802 56.4118 29.8766 56.0352 29.7887C55.6624 29.686 55.2548 29.7661 54.8125 30.029C54.4438 30.2481 54.1899 30.5237 54.0506 30.8559C53.9205 31.1826 53.8914 31.5429 53.9633 31.9366C54.0352 32.3304 54.2026 32.7484 54.4655 33.1908C54.7065 33.5963 54.9809 33.9321 55.2886 34.1981C55.5909 34.455 55.9166 34.6043 56.2658 34.6463C56.6187 34.6735 56.9933 34.5693 57.3896 34.3338C57.6845 34.1585 57.9032 33.96 58.0457 33.7381C58.1919 33.5015 58.2702 33.2555 58.2805 33C58.2945 32.7298 58.2413 32.462 58.1211 32.1968L60.2776 30.9151C60.6224 31.5583 60.776 32.2153 60.7382 32.8862C60.695 33.5479 60.4855 34.1712 60.1098 34.7562C59.7287 35.3319 59.1971 35.8224 58.5151 36.2277Z" fill="white"/>
<path d="M67.6986 31.7917C66.9996 32.0647 66.3336 32.1866 65.7008 32.1575C65.0779 32.1245 64.5087 31.9784 63.9933 31.7193C63.4839 31.4464 63.0368 31.0973 62.6521 30.6721C62.2735 30.2329 61.9808 29.7487 61.7742 29.2195L61.6572 28.9199C61.4427 28.3706 61.3279 27.8112 61.3127 27.2417C61.3036 26.6583 61.3958 26.0987 61.5893 25.5628C61.7829 25.0268 62.0945 24.5426 62.5241 24.1102C62.9598 23.6639 63.5122 23.3101 64.1812 23.0488C65.06 22.7057 65.877 22.6169 66.6322 22.7823C67.3934 22.934 68.0586 23.2669 68.6277 23.7813C69.1929 24.2857 69.6218 24.9123 69.9142 25.6613L70.23 26.4702L62.965 29.3069L62.4327 27.9438L68.2448 25.6744L67.7115 26.6077C67.5204 26.1184 67.2868 25.7262 67.0105 25.4313C66.7342 25.1364 66.4211 24.9536 66.0713 24.883C65.7276 24.7986 65.351 24.8363 64.9416 24.9961C64.5222 25.1599 64.2047 25.3932 63.9892 25.696C63.7737 25.9989 63.6631 26.3643 63.6576 26.7922C63.6482 27.2102 63.7468 27.6839 63.9535 28.2132C64.1446 28.7025 64.3821 29.1046 64.6662 29.4195C64.9464 29.7244 65.2753 29.9183 65.6529 30.001C66.0304 30.0838 66.4589 30.0315 66.9382 29.8444C67.3776 29.6728 67.704 29.4476 67.9173 29.1686C68.1307 28.8897 68.2385 28.6059 68.2409 28.3172L70.4429 27.4574C70.5375 28.0535 70.4939 28.6344 70.312 29.2003C70.1302 29.7662 69.8214 30.2723 69.3857 30.7186C68.95 31.165 68.3877 31.5227 67.6986 31.7917Z" fill="white"/>
<path d="M82.648 21.8379L79.9617 20.4434L79.6843 18.6313L81.8302 16.4969L83.042 18.0358L81.2244 19.1275L81.2828 19.509L83.3413 19.991L82.648 21.8379ZM79.3502 15.4938L79.4875 18.515L78.0526 19.662L75.1335 18.8726L75.8659 17.0686L77.7138 18.0871L78.0184 17.8452L77.4158 15.8226L79.3502 15.4938ZM75.5449 21.559L78.0939 19.9323L79.8063 20.5973L80.5794 23.5212L78.6377 23.8022L78.6074 21.692L78.2444 21.5523L76.8019 23.0747L75.5449 21.559Z" fill="white"/>
<circle cx="90" cy="90" r="30" fill="white"/>
<path fill-rule="evenodd" clip-rule="evenodd" d="M72 98.2961C72 98.2961 74.365 100.661 78.3066 99.6099C82.0064 98.6233 83.6224 93.7008 84.0241 89.4062C79.299 89.2214 74.9585 89.6055 73.6499 92.55C74.2264 86.0722 79.9494 84.71 84.9726 84.6395C84.3903 83.8314 84.047 82.8396 84.047 81.7674C84.047 79.0511 86.249 76.8491 88.9652 76.8491C91.6815 76.8491 93.8835 79.0511 93.8835 81.7674C93.8835 83.0882 93.3627 84.2874 92.5154 85.1709C96.835 85.651 100.418 85.9104 103.606 82.039C103.606 82.039 102.442 88.2666 96.7739 89.6595C95.6438 89.9372 94.1444 89.9824 92.4489 89.9251C92.3275 90.4357 92.1633 91.043 91.9449 91.7112C92.9825 92.0685 94.0698 92.5786 95.1242 93.3034C99.3285 96.1939 102.745 100.924 108 100.135C108 100.135 105.11 102.238 100.642 101.712C96.8021 101.26 93.3502 97.313 89.285 97.0488C88.7683 97.7607 88.1782 98.4496 87.5037 99.0845C83.0365 103.289 73.0511 105.916 72 98.2961Z" fill="#FA5241"/>
</svg>
